<svg xmlns="http://www.w3.org/2000/svg" xmlns:xlink="http://www.w3.org/1999/xlink" width="500" zoomAndPan="magnify" viewBox="0 0 375 374.999991" height="500" preserveAspectRatio="xMidYMid meet" version="1.0"><path fill="#043a58" d="M 15.015625 297.621094 L 157.699219 297.621094 L 133.023438 270.339844 L 143.167969 221.152344 C 140.035156 224.867188 129.28125 242.402344 123.359375 231.839844 L 92.261719 176.417969 C 48.179688 197.421875 15.78125 238.988281 7.46875 288.710938 C 6.683594 293.398438 10.257812 297.621094 15.015625 297.621094 Z M 301.164062 191.9375 C 316.058594 203.085938 312.679688 201.855469 331.253906 202.890625 C 338.390625 203.285156 344.183594 208.148438 345.816406 215.105469 C 350.058594 233.21875 348.261719 230.105469 361.824219 242.835938 C 367.035156 247.726562 368.347656 255.175781 365.125 261.554688 C 356.734375 278.160156 357.359375 274.617188 359.566406 293.089844 C 360.414062 300.1875 356.632812 306.734375 350.0625 309.550781 C 332.960938 316.875 335.714844 314.5625 325.53125 330.132812 C 321.621094 336.113281 314.511719 338.699219 307.671875 336.632812 C 289.863281 331.25 293.457031 331.25 275.652344 336.632812 C 268.8125 338.699219 261.703125 336.113281 257.792969 330.132812 C 247.609375 314.5625 250.363281 316.875 233.261719 309.550781 C 226.691406 306.734375 222.910156 300.183594 223.757812 293.089844 C 225.964844 274.617188 226.589844 278.15625 218.199219 261.554688 C 214.976562 255.175781 216.289062 247.726562 221.5 242.835938 C 235.0625 230.105469 233.265625 233.21875 237.507812 215.105469 C 239.140625 208.148438 244.933594 203.285156 252.066406 202.890625 C 270.644531 201.855469 267.265625 203.085938 282.160156 191.9375 C 287.878906 187.65625 295.445312 187.65625 301.164062 191.9375 Z M 291.660156 223.347656 C 269.746094 223.347656 251.976562 241.113281 251.976562 263.03125 C 251.976562 284.949219 269.746094 302.714844 291.660156 302.714844 C 313.578125 302.714844 331.347656 284.949219 331.347656 263.03125 C 331.347656 241.113281 313.578125 223.347656 291.660156 223.347656 Z M 310.144531 349.476562 L 321.503906 373.878906 C 321.988281 374.914062 323.433594 374.980469 324.007812 373.992188 L 334.921875 355.207031 L 356.324219 358.945312 C 357.453125 359.140625 358.332031 357.996094 357.847656 356.957031 L 343.332031 325.78125 C 342.144531 326.5 336.925781 335.066406 335.773438 336.828125 C 330.046875 345.585938 320.21875 350.269531 310.144531 349.476562 Z M 273.179688 349.476562 C 263.105469 350.269531 253.277344 345.585938 247.550781 336.828125 C 246.402344 335.070312 241.179688 326.5 239.992188 325.78125 L 225.476562 356.957031 C 224.992188 357.996094 225.875 359.144531 227 358.945312 L 248.402344 355.207031 L 259.316406 373.992188 C 259.890625 374.980469 261.335938 374.914062 261.820312 373.878906 Z M 157.699219 0 C 200.234375 0 234.71875 34.484375 234.71875 77.019531 C 234.71875 119.554688 200.234375 154.035156 157.699219 154.035156 C 115.164062 154.035156 80.683594 119.554688 80.683594 77.019531 C 80.683594 34.480469 115.164062 0 157.699219 0 Z M 157.699219 297.621094 L 211.523438 297.621094 C 211.34375 295.664062 211.367188 293.660156 211.609375 291.636719 C 213.523438 275.613281 214.558594 281.480469 207.277344 267.074219 C 201.617188 255.878906 203.976562 242.503906 213.125 233.917969 C 224.894531 222.871094 221.914062 228.03125 225.597656 212.316406 C 228.179688 201.292969 236.84375 193.140625 247.710938 191.117188 C 240.035156 185.484375 231.8125 180.554688 223.136719 176.421875 L 192.039062 231.839844 C 189.878906 235.695312 184.507812 236.015625 181.867188 232.582031 L 172.230469 221.152344 L 182.375 270.339844 Z M 211.835938 171.59375 L 185.695312 218.179688 L 166.464844 195.378906 L 201.648438 168.128906 C 205.097656 169.167969 208.492188 170.324219 211.835938 171.59375 Z M 186.53125 164.410156 L 157.699219 186.742188 L 128.867188 164.410156 C 138.203125 162.617188 147.839844 161.683594 157.699219 161.683594 C 167.558594 161.683594 177.195312 162.621094 186.53125 164.410156 Z M 113.75 168.128906 L 148.933594 195.378906 L 129.707031 218.179688 L 103.5625 171.59375 C 106.90625 170.324219 110.300781 169.167969 113.75 168.128906 Z M 113.75 168.128906 " fill-opacity="1" fill-rule="evenodd"/></svg>