<svg xmlns="http://www.w3.org/2000/svg" xmlns:xlink="http://www.w3.org/1999/xlink" width="500" zoomAndPan="magnify" viewBox="0 0 375 374.999991" height="500" preserveAspectRatio="xMidYMid meet" version="1.0"><defs><clipPath id="59e22ce50a"><path d="M 1 160 L 57 160 L 57 214.714844 L 1 214.714844 Z M 1 160 " clip-rule="nonzero"/></clipPath><clipPath id="c0425c095c"><path d="M 80 160 L 137 160 L 137 214.714844 L 80 214.714844 Z M 80 160 " clip-rule="nonzero"/></clipPath><clipPath id="8708dc5325"><path d="M 159 160 L 216 160 L 216 214.714844 L 159 214.714844 Z M 159 160 " clip-rule="nonzero"/></clipPath><clipPath id="6896c9c003"><path d="M 238 160 L 295 160 L 295 214.714844 L 238 214.714844 Z M 238 160 " clip-rule="nonzero"/></clipPath><clipPath id="48a0bd7f8d"><path d="M 318 160 L 374 160 L 374 214.714844 L 318 214.714844 Z M 318 160 " clip-rule="nonzero"/></clipPath></defs><g clip-path="url(#59e22ce50a)"><path fill="#043a58" d="M 25.96875 162.496094 C 27.175781 159.964844 30.777344 159.964844 31.984375 162.496094 L 37.875 174.851562 C 38.359375 175.871094 39.328125 176.574219 40.445312 176.722656 L 54.011719 178.511719 C 56.789062 178.878906 57.902344 182.304688 55.867188 184.238281 L 45.945312 193.664062 C 45.128906 194.441406 44.757812 195.578125 44.964844 196.691406 L 47.457031 210.152344 C 47.964844 212.910156 45.054688 215.027344 42.589844 213.691406 L 30.566406 207.160156 C 29.574219 206.621094 28.378906 206.621094 27.386719 207.160156 L 15.363281 213.691406 C 12.898438 215.027344 9.988281 212.910156 10.496094 210.152344 L 12.988281 196.691406 C 13.195312 195.578125 12.824219 194.441406 12.007812 193.664062 L 2.082031 184.238281 C 0.0507812 182.304688 1.164062 178.878906 3.941406 178.511719 L 17.503906 176.722656 C 18.625 176.574219 19.589844 175.871094 20.078125 174.851562 Z M 25.96875 162.496094 " fill-opacity="1" fill-rule="nonzero"/></g><g clip-path="url(#c0425c095c)"><path fill="#043a58" d="M 105.230469 162.496094 C 106.4375 159.964844 110.039062 159.964844 111.246094 162.496094 L 117.136719 174.851562 C 117.621094 175.871094 118.589844 176.574219 119.707031 176.722656 L 133.273438 178.511719 C 136.050781 178.878906 137.164062 182.304688 135.128906 184.238281 L 125.207031 193.664062 C 124.390625 194.441406 124.019531 195.578125 124.226562 196.691406 L 126.71875 210.152344 C 127.226562 212.910156 124.316406 215.027344 121.851562 213.691406 L 109.828125 207.160156 C 108.835938 206.621094 107.640625 206.621094 106.648438 207.160156 L 94.625 213.691406 C 92.160156 215.027344 89.25 212.910156 89.757812 210.152344 L 92.25 196.691406 C 92.457031 195.578125 92.085938 194.441406 91.269531 193.664062 L 81.347656 184.238281 C 79.3125 182.304688 80.425781 178.878906 83.203125 178.511719 L 96.769531 176.722656 C 97.886719 176.574219 98.855469 175.871094 99.339844 174.851562 Z M 105.230469 162.496094 " fill-opacity="1" fill-rule="nonzero"/></g><g clip-path="url(#8708dc5325)"><path fill="#043a58" d="M 184.492188 162.496094 C 185.699219 159.964844 189.300781 159.964844 190.507812 162.496094 L 196.398438 174.851562 C 196.882812 175.871094 197.851562 176.574219 198.96875 176.722656 L 212.535156 178.511719 C 215.3125 178.878906 216.425781 182.304688 214.390625 184.238281 L 204.46875 193.664062 C 203.652344 194.441406 203.28125 195.578125 203.488281 196.691406 L 205.980469 210.152344 C 206.488281 212.910156 203.578125 215.027344 201.113281 213.691406 L 189.089844 207.160156 C 188.097656 206.621094 186.902344 206.621094 185.910156 207.160156 L 173.886719 213.691406 C 171.421875 215.027344 168.511719 212.910156 169.019531 210.152344 L 171.511719 196.691406 C 171.71875 195.578125 171.347656 194.441406 170.53125 193.664062 L 160.609375 184.238281 C 158.574219 182.304688 159.6875 178.878906 162.464844 178.511719 L 176.03125 176.722656 C 177.148438 176.574219 178.117188 175.871094 178.601562 174.851562 Z M 184.492188 162.496094 " fill-opacity="1" fill-rule="nonzero"/></g><g clip-path="url(#6896c9c003)"><path fill="#043a58" d="M 263.753906 162.496094 C 264.960938 159.964844 268.5625 159.964844 269.769531 162.496094 L 275.660156 174.851562 C 276.144531 175.871094 277.113281 176.574219 278.230469 176.722656 L 291.796875 178.511719 C 294.574219 178.878906 295.6875 182.304688 293.652344 184.238281 L 283.730469 193.664062 C 282.914062 194.441406 282.542969 195.578125 282.75 196.691406 L 285.242188 210.152344 C 285.75 212.910156 282.839844 215.027344 280.375 213.691406 L 268.351562 207.160156 C 267.359375 206.621094 266.164062 206.621094 265.171875 207.160156 L 253.148438 213.691406 C 250.683594 215.027344 247.773438 212.910156 248.28125 210.152344 L 250.773438 196.691406 C 250.980469 195.578125 250.609375 194.441406 249.792969 193.664062 L 239.871094 184.238281 C 237.835938 182.304688 238.949219 178.878906 241.726562 178.511719 L 255.292969 176.722656 C 256.410156 176.574219 257.378906 175.871094 257.863281 174.851562 Z M 263.753906 162.496094 " fill-opacity="1" fill-rule="nonzero"/></g><g clip-path="url(#48a0bd7f8d)"><path fill="#043a58" d="M 343.015625 162.496094 C 344.222656 159.964844 347.824219 159.964844 349.03125 162.496094 L 354.921875 174.851562 C 355.40625 175.871094 356.375 176.574219 357.492188 176.722656 L 371.058594 178.511719 C 373.835938 178.878906 374.949219 182.304688 372.914062 184.238281 L 362.992188 193.664062 C 362.175781 194.441406 361.804688 195.578125 362.011719 196.691406 L 364.503906 210.152344 C 365.011719 212.910156 362.101562 215.027344 359.636719 213.691406 L 347.613281 207.160156 C 346.621094 206.621094 345.425781 206.621094 344.433594 207.160156 L 332.410156 213.691406 C 329.945312 215.027344 327.035156 212.910156 327.542969 210.152344 L 330.035156 196.691406 C 330.242188 195.578125 329.871094 194.441406 329.054688 193.664062 L 319.132812 184.238281 C 317.097656 182.304688 318.210938 178.878906 320.988281 178.511719 L 334.554688 176.722656 C 335.671875 176.574219 336.640625 175.871094 337.125 174.851562 Z M 343.015625 162.496094 " fill-opacity="1" fill-rule="nonzero"/></g></svg>