<svg xmlns="http://www.w3.org/2000/svg" xmlns:xlink="http://www.w3.org/1999/xlink" width="500" zoomAndPan="magnify" viewBox="0 0 375 374.999991" height="500" preserveAspectRatio="xMidYMid meet" version="1.0"><defs><clipPath id="411b389793"><path d="M 82 12.65625 L 302 12.65625 L 302 80 L 82 80 Z M 82 12.65625 " clip-rule="nonzero"/></clipPath><clipPath id="45ef4a2201"><path d="M 0 67 L 350 67 L 350 362.15625 L 0 362.15625 Z M 0 67 " clip-rule="nonzero"/></clipPath></defs><path fill="#043a58" d="M 118.566406 151.363281 L 98.402344 171.527344 L 176.425781 249.550781 L 375 50.976562 L 354.835938 30.824219 L 176.425781 209.222656 Z M 118.566406 151.363281 " fill-opacity="1" fill-rule="nonzero"/><path fill="#043a58" d="M 55.109375 217.96875 C 57.550781 227.59375 61.175781 236.925781 65.863281 245.683594 L 80.941406 237.609375 C 76.90625 230.058594 73.792969 222.039062 71.679688 213.75 C 69.515625 205.21875 68.417969 196.378906 68.417969 187.484375 C 68.417969 173.125 71.226562 159.199219 76.769531 146.082031 C 82.128906 133.421875 89.792969 122.039062 99.566406 112.277344 C 109.339844 102.515625 120.710938 94.839844 133.371094 89.480469 C 146.476562 83.9375 160.402344 81.128906 174.773438 81.128906 C 189.132812 81.128906 203.054688 83.9375 216.171875 89.480469 C 228.832031 94.839844 240.214844 102.503906 249.976562 112.277344 C 251.1875 113.488281 252.371094 114.730469 253.511719 115.984375 L 265.613281 103.882812 C 264.449219 102.628906 263.277344 101.386719 262.066406 100.1875 C 256.476562 94.601562 250.332031 89.535156 243.796875 85.121094 C 237.191406 80.664062 230.132812 76.832031 222.820312 73.738281 C 207.597656 67.296875 191.421875 64.035156 174.761719 64.035156 C 158.097656 64.035156 141.925781 67.296875 126.699219 73.738281 C 119.378906 76.832031 112.328125 80.664062 105.726562 85.121094 C 99.191406 89.535156 93.042969 94.609375 87.453125 100.1875 C 81.867188 105.777344 76.800781 111.925781 72.386719 118.460938 C 67.929688 125.0625 64.097656 132.121094 61.007812 139.433594 C 54.5625 154.660156 51.300781 170.832031 51.300781 187.496094 C 51.324219 197.804688 52.601562 208.058594 55.109375 217.96875 Z M 55.109375 217.96875 " fill-opacity="1" fill-rule="nonzero"/><path fill="#043a58" d="M 88.925781 269.578125 L 105.816406 313.109375 L 116.570312 296.390625 C 134.398438 305.949219 154.300781 310.941406 174.773438 310.941406 C 191.433594 310.941406 207.605469 307.679688 222.832031 301.238281 C 230.15625 298.148438 237.203125 294.316406 243.808594 289.855469 C 250.34375 285.441406 256.488281 280.367188 262.078125 274.789062 C 267.667969 269.210938 272.730469 263.054688 277.144531 256.519531 C 281.605469 249.914062 285.4375 242.855469 288.527344 235.542969 C 294.96875 220.316406 298.230469 204.144531 298.230469 187.484375 C 298.230469 174.527344 296.257812 161.878906 292.359375 149.730469 L 278.457031 163.636719 C 280.234375 171.402344 281.136719 179.375 281.136719 187.484375 C 281.136719 201.84375 278.332031 215.765625 272.789062 228.882812 C 267.425781 241.542969 259.761719 252.925781 249.988281 262.6875 C 240.214844 272.449219 228.84375 280.125 216.183594 285.488281 C 203.078125 291.03125 189.152344 293.835938 174.785156 293.835938 C 157.605469 293.835938 140.910156 289.753906 125.867188 281.953125 L 135.550781 266.898438 Z M 88.925781 269.578125 " fill-opacity="1" fill-rule="nonzero"/><g clip-path="url(#411b389793)"><path fill="#043a58" d="M 130.507812 36.113281 C 144.820312 31.941406 159.71875 29.820312 174.785156 29.820312 C 196.078125 29.820312 216.71875 33.980469 236.152344 42.203125 C 245.496094 46.152344 254.503906 51.042969 262.933594 56.746094 C 271.28125 62.390625 279.140625 68.871094 286.28125 76.007812 C 287.488281 77.21875 288.675781 78.449219 289.839844 79.691406 L 301.9375 67.59375 C 300.765625 66.347656 299.578125 65.117188 298.367188 63.910156 C 290.464844 56.003906 281.761719 48.820312 272.503906 42.570312 C 263.160156 36.25 253.171875 30.832031 242.816406 26.453125 C 232.265625 21.996094 221.226562 18.5625 209.992188 16.269531 C 198.472656 13.910156 186.632812 12.722656 174.773438 12.722656 C 158.085938 12.722656 141.582031 15.070312 125.707031 19.703125 C 110.332031 24.195312 95.632812 30.800781 82.027344 39.332031 L 91.117188 53.828125 C 103.398438 46.117188 116.652344 40.164062 130.507812 36.113281 Z M 130.507812 36.113281 " fill-opacity="1" fill-rule="nonzero"/></g><g clip-path="url(#45ef4a2201)"><path fill="#043a58" d="M 335.824219 119.453125 C 334.535156 116.40625 333.15625 113.382812 331.683594 110.40625 L 318.820312 123.273438 C 319.242188 124.21875 319.652344 125.164062 320.0625 126.125 C 328.285156 145.558594 332.449219 166.199219 332.449219 187.496094 C 332.449219 208.789062 328.285156 229.429688 320.0625 248.863281 C 316.117188 258.207031 311.222656 267.214844 305.519531 275.644531 C 299.875 283.992188 293.394531 291.851562 286.257812 298.992188 C 279.117188 306.128906 271.269531 312.609375 262.910156 318.253906 C 254.480469 323.945312 245.472656 328.835938 236.132812 332.796875 C 216.695312 341.019531 196.054688 345.179688 174.761719 345.179688 C 153.46875 345.179688 132.824219 341.019531 113.390625 332.796875 C 104.046875 328.847656 95.039062 323.957031 86.609375 318.253906 C 78.261719 312.609375 70.402344 306.128906 63.265625 298.992188 C 56.125 291.851562 49.644531 284.003906 44 275.644531 C 38.308594 267.214844 33.417969 258.207031 29.460938 248.863281 C 21.234375 229.429688 17.074219 208.789062 17.074219 187.496094 C 17.074219 169.929688 19.9375 152.699219 25.582031 136.25 C 29.515625 124.777344 34.761719 113.839844 41.21875 103.597656 L 54.734375 113.851562 L 55.679688 67.160156 L 10.972656 80.628906 L 27.578125 93.21875 C 20.050781 104.945312 13.972656 117.5 9.445312 130.695312 C 3.183594 148.933594 0 168.046875 0 187.496094 C 0 199.34375 1.199219 211.195312 3.546875 222.714844 C 5.839844 233.9375 9.273438 244.976562 13.730469 255.539062 C 18.109375 265.894531 23.539062 275.882812 29.847656 285.226562 C 36.097656 294.472656 43.28125 303.175781 51.1875 311.089844 C 59.089844 318.996094 67.792969 326.179688 77.054688 332.429688 C 86.394531 338.75 96.382812 344.167969 106.742188 348.546875 C 117.289062 353.003906 128.332031 356.4375 139.5625 358.730469 C 151.082031 361.089844 162.921875 362.277344 174.785156 362.277344 C 186.644531 362.277344 198.484375 361.082031 210.003906 358.730469 C 221.226562 356.4375 232.265625 353.003906 242.824219 348.546875 C 253.183594 344.167969 263.171875 338.738281 272.511719 332.429688 C 281.761719 326.179688 290.464844 318.996094 298.378906 311.089844 C 306.285156 303.1875 313.46875 294.484375 319.71875 285.226562 C 326.039062 275.882812 331.457031 265.894531 335.835938 255.539062 C 340.292969 244.988281 343.726562 233.949219 346.019531 222.714844 C 348.378906 211.195312 349.566406 199.355469 349.566406 187.496094 C 349.566406 175.632812 348.367188 163.792969 346.019531 152.273438 C 343.714844 141.050781 340.292969 130.011719 335.824219 119.453125 Z M 335.824219 119.453125 " fill-opacity="1" fill-rule="nonzero"/></g></svg>