<svg xmlns="http://www.w3.org/2000/svg" xmlns:xlink="http://www.w3.org/1999/xlink" width="500" zoomAndPan="magnify" viewBox="0 0 375 374.999991" height="500" preserveAspectRatio="xMidYMid meet" version="1.0"><defs><clipPath id="49f493c681"><path d="M 12 7.144531 L 372 7.144531 L 372 367 L 12 367 Z M 12 7.144531 " clip-rule="nonzero"/></clipPath></defs><g clip-path="url(#49f493c681)"><path fill="#043a58" d="M 201.058594 60.546875 C 198.859375 58.34375 196.558594 56.253906 194.148438 54.28125 C 191.742188 52.304688 189.246094 50.453125 186.652344 48.726562 C 184.0625 47 181.394531 45.40625 178.644531 43.941406 C 175.894531 42.480469 173.082031 41.160156 170.203125 39.976562 C 167.320312 38.792969 164.390625 37.753906 161.40625 36.863281 C 158.425781 35.96875 155.40625 35.226562 152.347656 34.636719 C 149.292969 34.042969 146.214844 33.601562 143.113281 33.316406 C 140.011719 33.027344 136.90625 32.894531 133.792969 32.917969 C 131.445312 32.917969 129.097656 33.003906 126.757812 33.179688 C 124.414062 33.351562 122.082031 33.613281 119.757812 33.957031 C 117.433594 34.304688 115.125 34.734375 112.835938 35.25 C 110.542969 35.765625 108.273438 36.367188 106.027344 37.050781 C 103.78125 37.734375 101.5625 38.496094 99.371094 39.34375 C 97.179688 40.191406 95.023438 41.117188 92.898438 42.125 C 90.777344 43.128906 88.695312 44.210938 86.652344 45.371094 C 84.609375 46.53125 82.609375 47.761719 80.660156 49.070312 C 78.707031 50.375 76.804688 51.753906 74.957031 53.199219 C 73.105469 54.644531 71.308594 56.160156 69.570312 57.738281 C 67.832031 59.316406 66.152344 60.957031 64.535156 62.660156 C 62.917969 64.363281 61.363281 66.121094 59.875 67.941406 C 58.386719 69.757812 56.96875 71.625 55.617188 73.546875 C 54.269531 75.46875 52.992188 77.4375 51.785156 79.457031 C 50.578125 81.472656 49.449219 83.527344 48.398438 85.628906 C 47.34375 87.726562 46.367188 89.863281 45.472656 92.035156 C 44.574219 94.203125 43.761719 96.40625 43.027344 98.636719 C 42.292969 100.867188 41.640625 103.125 41.074219 105.402344 C 40.507812 107.683594 40.023438 109.980469 39.625 112.292969 C 39.226562 114.609375 38.914062 116.933594 38.6875 119.273438 C 38.460938 121.609375 38.320312 123.953125 38.265625 126.300781 C 38.210938 128.648438 38.242188 130.996094 38.363281 133.34375 C 38.480469 135.6875 38.6875 138.027344 38.976562 140.359375 C 39.269531 142.6875 39.644531 145.003906 40.105469 147.308594 C 40.570312 149.609375 41.113281 151.894531 41.746094 154.15625 C 42.375 156.417969 43.085938 158.65625 43.882812 160.867188 C 44.679688 163.078125 45.554688 165.253906 46.507812 167.398438 C 47.464844 169.546875 48.496094 171.652344 49.609375 173.722656 C 50.71875 175.792969 51.90625 177.816406 53.167969 179.800781 C 54.425781 181.78125 55.757812 183.714844 57.160156 185.597656 C 58.5625 187.484375 60.035156 189.3125 61.570312 191.089844 C 63.109375 192.863281 64.710938 194.582031 66.375 196.238281 C 68.578125 198.449219 70.882812 200.546875 73.292969 202.527344 C 75.703125 204.511719 78.207031 206.371094 80.796875 208.105469 C 83.390625 209.839844 86.066406 211.445312 88.816406 212.917969 C 91.570312 214.390625 94.386719 215.722656 97.269531 216.914062 C 100.152344 218.109375 103.089844 219.15625 106.078125 220.058594 C 109.0625 220.964844 112.089844 221.71875 115.148438 222.324219 C 118.210938 222.925781 121.296875 223.378906 124.402344 223.679688 C 127.507812 223.980469 130.621094 224.125 133.742188 224.121094 L 133.992188 224.121094 C 136.34375 224.117188 138.691406 224.023438 141.039062 223.847656 C 143.382812 223.671875 145.71875 223.410156 148.042969 223.058594 C 150.367188 222.710938 152.675781 222.277344 154.972656 221.757812 C 157.265625 221.234375 159.535156 220.632812 161.785156 219.945312 C 164.03125 219.257812 166.253906 218.488281 168.445312 217.636719 C 170.636719 216.785156 172.792969 215.855469 174.917969 214.847656 C 177.042969 213.835938 179.125 212.75 181.167969 211.585938 C 183.210938 210.421875 185.207031 209.183594 187.160156 207.871094 C 189.113281 206.558594 191.011719 205.179688 192.863281 203.726562 C 194.710938 202.273438 196.503906 200.757812 198.242188 199.171875 C 199.980469 197.589844 201.660156 195.945312 203.273438 194.234375 C 204.890625 192.527344 206.441406 190.761719 207.929688 188.941406 C 209.414062 187.117188 210.832031 185.242188 212.179688 183.316406 C 213.527344 181.390625 214.800781 179.417969 216.003906 177.394531 C 217.207031 175.375 218.332031 173.3125 219.382812 171.207031 C 220.433594 169.105469 221.402344 166.964844 222.296875 164.789062 C 223.1875 162.613281 223.996094 160.40625 224.726562 158.171875 C 225.457031 155.9375 226.101562 153.675781 226.664062 151.394531 C 227.226562 149.109375 227.707031 146.808594 228.097656 144.492188 C 228.492188 142.171875 228.796875 139.84375 229.019531 137.503906 C 229.238281 135.160156 229.375 132.816406 229.421875 130.464844 C 229.46875 128.113281 229.429688 125.765625 229.304688 123.417969 C 229.179688 121.070312 228.96875 118.726562 228.667969 116.394531 C 228.371094 114.0625 227.988281 111.746094 227.515625 109.441406 C 227.046875 107.136719 226.496094 104.851562 225.855469 102.589844 C 225.21875 100.328125 224.5 98.089844 223.695312 95.878906 C 222.890625 93.671875 222.007812 91.492188 221.046875 89.347656 C 220.082031 87.203125 219.039062 85.097656 217.921875 83.027344 C 216.800781 80.960938 215.609375 78.9375 214.339844 76.957031 C 213.070312 74.976562 211.734375 73.046875 210.320312 71.164062 C 208.910156 69.285156 207.433594 67.457031 205.886719 65.683594 C 204.339844 63.914062 202.734375 62.199219 201.058594 60.546875 Z M 195.785156 147.859375 C 191.378906 151.003906 186.765625 153.800781 181.9375 156.246094 C 177.109375 158.695312 172.125 160.765625 166.984375 162.460938 C 161.847656 164.15625 156.609375 165.457031 151.269531 166.359375 C 145.933594 167.261719 140.5625 167.761719 135.148438 167.855469 C 126.171875 167.71875 117.339844 166.507812 108.65625 164.222656 C 99.972656 161.9375 91.6875 158.640625 83.808594 154.339844 C 73.132812 148.464844 63.839844 140.894531 55.925781 131.632812 C 55.675781 131.4375 55.453125 131.222656 55.25 130.976562 C 55.050781 130.734375 54.878906 130.472656 54.738281 130.191406 C 54.597656 129.910156 54.488281 129.613281 54.410156 129.308594 C 54.335938 129.003906 54.292969 128.691406 54.285156 128.378906 C 54.277344 128.0625 54.304688 127.75 54.367188 127.441406 C 54.429688 127.132812 54.527344 126.835938 54.65625 126.546875 C 54.785156 126.257812 54.941406 125.988281 55.132812 125.738281 C 55.320312 125.484375 55.535156 125.257812 55.773438 125.050781 C 57.230469 123.644531 58.6875 122.1875 60.144531 120.730469 C 64.050781 116.585938 68.253906 112.765625 72.753906 109.277344 C 77.3125 105.894531 82.125 102.917969 87.1875 100.355469 C 92.253906 97.789062 97.496094 95.671875 102.921875 93.996094 C 108.347656 92.324219 113.875 91.121094 119.503906 90.390625 C 125.132812 89.65625 130.78125 89.40625 136.457031 89.632812 C 139.625 89.699219 142.785156 89.914062 145.933594 90.269531 C 149.082031 90.628906 152.207031 91.132812 155.308594 91.78125 C 158.414062 92.429688 161.480469 93.222656 164.507812 94.152344 C 167.539062 95.085938 170.515625 96.15625 173.449219 97.367188 C 176.378906 98.574219 179.246094 99.917969 182.050781 101.390625 C 184.855469 102.867188 187.589844 104.46875 190.246094 106.195312 C 192.902344 107.921875 195.472656 109.769531 197.960938 111.738281 C 200.445312 113.703125 202.835938 115.78125 205.128906 117.96875 C 207.339844 120.027344 209.5 122.136719 211.710938 124.347656 L 215.578125 128.167969 L 215.078125 129.019531 C 212.578125 132.820312 209.703125 136.308594 206.449219 139.484375 C 203.199219 142.660156 199.644531 145.453125 195.785156 147.859375 Z M 150.019531 106.363281 C 154.148438 107.144531 158.203125 108.210938 162.183594 109.558594 C 166.164062 110.902344 170.03125 112.519531 173.785156 114.40625 C 177.539062 116.292969 181.148438 118.429688 184.605469 120.820312 C 188.0625 123.207031 191.335938 125.824219 194.429688 128.667969 C 191.300781 131.492188 187.988281 134.082031 184.503906 136.449219 C 181.015625 138.816406 177.382812 140.929688 173.601562 142.792969 C 169.820312 144.65625 165.933594 146.253906 161.933594 147.582031 C 157.933594 148.910156 153.863281 149.957031 149.71875 150.722656 C 151.445312 149.445312 153.011719 147.988281 154.40625 146.351562 C 155.804688 144.71875 157.003906 142.949219 158 141.042969 C 158.996094 139.136719 159.765625 137.144531 160.308594 135.0625 C 160.855469 132.984375 161.160156 130.867188 161.222656 128.71875 C 161.257812 126.542969 161.035156 124.394531 160.550781 122.269531 C 160.066406 120.148438 159.339844 118.113281 158.363281 116.167969 C 157.386719 114.222656 156.195312 112.417969 154.785156 110.761719 C 153.371094 109.101562 151.785156 107.636719 150.019531 106.363281 Z M 106.5625 128.167969 C 106.503906 130.253906 106.679688 132.320312 107.089844 134.367188 C 107.5 136.414062 108.136719 138.390625 109 140.292969 C 109.863281 142.195312 110.925781 143.976562 112.195312 145.636719 C 113.464844 147.292969 114.902344 148.789062 116.511719 150.121094 C 112.480469 149.410156 108.523438 148.414062 104.636719 147.132812 C 100.75 145.855469 96.976562 144.308594 93.3125 142.488281 C 89.644531 140.667969 86.128906 138.597656 82.761719 136.273438 C 79.394531 133.949219 76.210938 131.398438 73.207031 128.617188 C 76.355469 125.765625 79.6875 123.148438 83.199219 120.761719 C 86.714844 118.375 90.375 116.242188 94.183594 114.363281 C 97.996094 112.488281 101.917969 110.882812 105.949219 109.550781 C 109.984375 108.21875 114.089844 107.171875 118.269531 106.414062 C 116.539062 107.667969 114.96875 109.101562 113.558594 110.710938 C 112.152344 112.320312 110.941406 114.066406 109.929688 115.949219 C 108.914062 117.835938 108.125 119.808594 107.554688 121.867188 C 106.988281 123.929688 106.65625 126.03125 106.5625 128.167969 Z M 145.546875 128.566406 C 145.527344 129.332031 145.4375 130.085938 145.273438 130.832031 C 145.109375 131.578125 144.878906 132.300781 144.578125 133 C 144.277344 133.703125 143.914062 134.367188 143.484375 135 C 143.054688 135.632812 142.574219 136.21875 142.03125 136.757812 C 141.492188 137.296875 140.90625 137.78125 140.277344 138.210938 C 139.644531 138.636719 138.976562 139 138.277344 139.304688 C 137.574219 139.605469 136.851562 139.835938 136.105469 140 C 135.359375 140.164062 134.605469 140.253906 133.84375 140.273438 L 133.640625 140.273438 C 132.882812 140.246094 132.136719 140.148438 131.398438 139.976562 C 130.65625 139.808594 129.941406 139.566406 129.25 139.257812 C 128.558594 138.945312 127.902344 138.570312 127.285156 138.132812 C 126.664062 137.695312 126.09375 137.203125 125.570312 136.652344 C 125.046875 136.105469 124.582031 135.511719 124.171875 134.871094 C 123.765625 134.230469 123.421875 133.558594 123.144531 132.851562 C 122.867188 132.148438 122.664062 131.421875 122.527344 130.675781 C 122.390625 129.929688 122.328125 129.175781 122.339844 128.417969 C 122.335938 127.660156 122.410156 126.910156 122.558594 126.167969 C 122.707031 125.425781 122.925781 124.707031 123.214844 124.007812 C 123.507812 123.308594 123.863281 122.648438 124.285156 122.019531 C 124.707031 121.390625 125.1875 120.8125 125.722656 120.277344 C 126.261719 119.746094 126.847656 119.269531 127.476562 118.855469 C 128.109375 118.4375 128.777344 118.085938 129.476562 117.800781 C 130.179688 117.519531 130.898438 117.304688 131.644531 117.164062 C 132.386719 117.023438 133.136719 116.957031 133.894531 116.964844 L 133.992188 116.964844 C 134.75 116.980469 135.496094 117.066406 136.238281 117.226562 C 136.976562 117.386719 137.695312 117.613281 138.390625 117.910156 C 139.085938 118.210938 139.746094 118.570312 140.371094 118.996094 C 140.996094 119.417969 141.578125 119.898438 142.113281 120.433594 C 142.644531 120.972656 143.125 121.554688 143.542969 122.179688 C 143.964844 122.808594 144.324219 123.472656 144.621094 124.167969 C 144.914062 124.863281 145.140625 125.582031 145.296875 126.324219 C 145.453125 127.0625 145.535156 127.8125 145.546875 128.566406 Z M 133.742188 7.144531 L 133.640625 7.144531 C 130.660156 7.148438 127.679688 7.261719 124.707031 7.484375 C 121.734375 7.707031 118.769531 8.039062 115.820312 8.480469 C 112.871094 8.921875 109.941406 9.46875 107.035156 10.125 C 104.125 10.785156 101.242188 11.546875 98.390625 12.417969 C 95.539062 13.285156 92.71875 14.257812 89.941406 15.335938 C 87.160156 16.414062 84.421875 17.589844 81.726562 18.871094 C 79.03125 20.148438 76.390625 21.527344 73.796875 23 C 71.203125 24.472656 68.667969 26.042969 66.191406 27.703125 C 63.714844 29.363281 61.300781 31.113281 58.953125 32.953125 C 56.605469 34.789062 54.328125 36.714844 52.121094 38.71875 C 49.914062 40.726562 47.785156 42.8125 45.734375 44.976562 C 43.679688 47.140625 41.710938 49.375 39.824219 51.683594 C 37.933594 53.992188 36.132812 56.367188 34.421875 58.8125 C 32.710938 61.253906 31.089844 63.753906 29.5625 66.316406 C 28.03125 68.875 26.601562 71.488281 25.265625 74.15625 C 23.929688 76.824219 22.695312 79.535156 21.558594 82.292969 C 20.421875 85.050781 19.390625 87.847656 18.460938 90.679688 C 17.53125 93.515625 16.707031 96.378906 15.992188 99.273438 C 15.273438 102.167969 14.660156 105.085938 14.160156 108.027344 C 13.65625 110.964844 13.261719 113.917969 12.976562 116.886719 C 12.691406 119.855469 12.515625 122.832031 12.449219 125.8125 C 12.382812 128.796875 12.429688 131.777344 12.582031 134.753906 C 12.734375 137.734375 13 140.703125 13.371094 143.660156 C 13.746094 146.621094 14.226562 149.5625 14.816406 152.484375 C 15.40625 155.40625 16.101562 158.304688 16.90625 161.179688 C 17.707031 164.050781 18.617188 166.890625 19.628906 169.695312 C 20.640625 172.5 21.757812 175.265625 22.972656 177.988281 C 24.1875 180.710938 25.503906 183.382812 26.917969 186.011719 C 28.332031 188.636719 29.839844 191.207031 31.441406 193.722656 C 33.046875 196.238281 34.738281 198.691406 36.523438 201.078125 C 38.308594 203.46875 40.175781 205.789062 42.132812 208.042969 C 44.085938 210.296875 46.125 212.472656 48.238281 214.574219 C 51.027344 217.378906 53.945312 220.039062 56.996094 222.554688 C 60.042969 225.070312 63.210938 227.425781 66.496094 229.628906 C 69.777344 231.832031 73.160156 233.867188 76.644531 235.738281 C 80.128906 237.605469 83.695312 239.296875 87.347656 240.8125 C 91 242.328125 94.714844 243.660156 98.5 244.8125 C 102.28125 245.960938 106.113281 246.917969 109.992188 247.691406 C 113.867188 248.460938 117.773438 249.039062 121.710938 249.421875 C 125.644531 249.808594 129.589844 249.996094 133.542969 249.992188 L 133.992188 249.992188 C 135.980469 249.988281 137.96875 249.9375 139.953125 249.839844 C 141.9375 249.738281 143.917969 249.589844 145.894531 249.394531 C 147.871094 249.199219 149.84375 248.953125 151.808594 248.660156 C 153.773438 248.363281 155.730469 248.023438 157.679688 247.632812 C 159.628906 247.246094 161.566406 246.808594 163.492188 246.320312 C 165.421875 245.835938 167.335938 245.304688 169.234375 244.726562 C 171.136719 244.148438 173.023438 243.523438 174.894531 242.851562 C 176.761719 242.179688 178.617188 241.464844 180.449219 240.699219 C 182.285156 239.9375 184.101562 239.132812 185.898438 238.28125 C 187.691406 237.429688 189.464844 236.535156 191.21875 235.59375 C 192.96875 234.65625 194.695312 233.675781 196.398438 232.652344 C 198.101562 231.628906 199.78125 230.5625 201.433594 229.457031 C 203.082031 228.351562 204.707031 227.207031 206.300781 226.019531 C 207.894531 224.835938 209.460938 223.613281 210.996094 222.351562 C 212.53125 221.085938 214.03125 219.789062 215.503906 218.453125 C 216.976562 217.117188 218.414062 215.746094 219.816406 214.339844 C 221.21875 212.933594 222.589844 211.492188 223.921875 210.019531 C 225.253906 208.542969 226.550781 207.039062 227.808594 205.5 C 229.066406 203.964844 230.289062 202.394531 231.472656 200.800781 C 232.652344 199.203125 233.796875 197.578125 234.898438 195.921875 C 236 194.269531 237.0625 192.589844 238.082031 190.882812 C 239.101562 189.179688 240.078125 187.449219 241.011719 185.695312 C 241.949219 183.941406 242.839844 182.167969 243.6875 180.371094 C 244.535156 178.574219 245.339844 176.753906 246.097656 174.917969 C 246.855469 173.082031 247.566406 171.226562 248.234375 169.355469 C 248.902344 167.484375 249.523438 165.597656 250.097656 163.695312 C 250.675781 161.792969 251.203125 159.878906 251.683594 157.949219 C 252.164062 156.023438 252.597656 154.082031 252.984375 152.132812 C 253.367188 150.183594 253.707031 148.226562 253.996094 146.261719 C 254.285156 144.292969 254.527344 142.324219 254.71875 140.34375 C 254.910156 138.367188 255.054688 136.386719 255.152344 134.402344 C 255.246094 132.414062 255.292969 130.429688 255.292969 128.441406 C 255.289062 126.457031 255.238281 124.46875 255.140625 122.484375 C 255.039062 120.5 254.890625 118.519531 254.695312 116.542969 C 254.496094 114.5625 254.253906 112.59375 253.957031 110.628906 C 253.664062 108.660156 253.324219 106.707031 252.933594 104.757812 C 252.542969 102.808594 252.105469 100.871094 251.621094 98.941406 C 251.136719 97.015625 250.605469 95.101562 250.027344 93.199219 C 249.449219 91.300781 248.824219 89.414062 248.152344 87.542969 C 247.480469 85.671875 246.761719 83.820312 246 81.984375 C 245.238281 80.148438 244.429688 78.335938 243.578125 76.539062 C 242.726562 74.742188 241.832031 72.96875 240.894531 71.21875 C 239.957031 69.46875 238.976562 67.738281 237.953125 66.035156 C 236.929688 64.332031 235.863281 62.65625 234.757812 61.003906 C 233.652344 59.351562 232.507812 57.730469 231.320312 56.136719 C 230.136719 54.539062 228.914062 52.976562 227.648438 51.441406 C 226.386719 49.90625 225.089844 48.402344 223.753906 46.933594 C 222.417969 45.460938 221.046875 44.023438 219.636719 42.621094 C 218.230469 41.214844 216.792969 39.847656 215.316406 38.515625 C 213.84375 37.183594 212.339844 35.886719 210.800781 34.628906 C 209.265625 33.367188 207.695312 32.148438 206.097656 30.964844 C 204.5 29.78125 202.875 28.640625 201.222656 27.539062 C 199.570312 26.4375 197.890625 25.375 196.183594 24.355469 C 194.480469 23.335938 192.75 22.359375 190.996094 21.421875 C 189.242188 20.488281 187.46875 19.597656 185.667969 18.75 C 183.871094 17.902344 182.054688 17.097656 180.21875 16.339844 C 178.382812 15.582031 176.527344 14.867188 174.65625 14.199219 C 172.785156 13.53125 170.898438 12.910156 168.996094 12.335938 C 167.09375 11.761719 165.179688 11.234375 163.25 10.753906 C 161.320312 10.273438 159.382812 9.839844 157.433594 9.453125 C 155.484375 9.066406 153.527344 8.730469 151.558594 8.441406 C 149.59375 8.152344 147.621094 7.910156 145.644531 7.71875 C 143.667969 7.523438 141.6875 7.378906 139.699219 7.285156 C 137.714844 7.191406 135.730469 7.144531 133.742188 7.144531 Z M 211.960938 207.492188 C 209.425781 210.03125 206.769531 212.4375 203.992188 214.714844 C 201.21875 216.992188 198.335938 219.128906 195.351562 221.121094 C 192.367188 223.117188 189.292969 224.957031 186.125 226.648438 C 182.957031 228.339844 179.714844 229.871094 176.398438 231.242188 C 173.082031 232.613281 169.703125 233.820312 166.269531 234.859375 C 162.832031 235.898438 159.351562 236.765625 155.832031 237.460938 C 152.308594 238.160156 148.761719 238.679688 145.191406 239.027344 C 141.617188 239.375 138.035156 239.546875 134.445312 239.542969 L 133.640625 239.542969 C 131.828125 239.539062 130.011719 239.496094 128.199219 239.402344 C 126.382812 239.3125 124.574219 239.179688 122.765625 239 C 120.960938 238.820312 119.160156 238.597656 117.363281 238.328125 C 115.566406 238.0625 113.777344 237.75 112 237.394531 C 110.21875 237.039062 108.445312 236.640625 106.6875 236.195312 C 104.925781 235.753906 103.175781 235.269531 101.4375 234.738281 C 99.703125 234.210938 97.976562 233.640625 96.269531 233.027344 C 94.558594 232.414062 92.867188 231.761719 91.191406 231.066406 C 89.511719 230.367188 87.855469 229.632812 86.210938 228.855469 C 84.570312 228.078125 82.949219 227.257812 81.351562 226.402344 C 79.75 225.546875 78.171875 224.648438 76.613281 223.714844 C 75.058594 222.78125 73.523438 221.808594 72.015625 220.796875 C 70.507812 219.789062 69.023438 218.742188 67.566406 217.660156 C 66.105469 216.578125 64.675781 215.460938 63.273438 214.308594 C 61.871094 213.152344 60.496094 211.96875 59.152344 210.746094 C 57.808594 209.527344 56.496094 208.273438 55.210938 206.988281 C 53.929688 205.703125 52.675781 204.390625 51.457031 203.042969 C 50.238281 201.695312 49.054688 200.320312 47.902344 198.917969 C 46.753906 197.511719 45.636719 196.082031 44.554688 194.621094 C 43.476562 193.164062 42.429688 191.679688 41.421875 190.167969 C 40.414062 188.65625 39.445312 187.125 38.511719 185.566406 C 37.578125 184.007812 36.6875 182.429688 35.832031 180.824219 C 34.976562 179.222656 34.160156 177.601562 33.386719 175.960938 C 32.609375 174.320312 31.875 172.660156 31.179688 170.980469 C 30.488281 169.304688 29.835938 167.609375 29.222656 165.898438 C 28.613281 164.1875 28.042969 162.464844 27.519531 160.726562 C 26.992188 158.988281 26.507812 157.238281 26.070312 155.476562 C 25.628906 153.714844 25.230469 151.945312 24.878906 150.164062 C 24.523438 148.382812 24.214844 146.59375 23.949219 144.796875 C 23.683594 143 23.464844 141.199219 23.285156 139.394531 C 23.109375 137.585938 22.976562 135.777344 22.886719 133.960938 C 22.800781 132.148438 22.753906 130.332031 22.757812 128.519531 C 22.757812 126.703125 22.804688 124.886719 22.894531 123.074219 C 22.984375 121.261719 23.117188 119.449219 23.296875 117.644531 C 23.472656 115.835938 23.699219 114.035156 23.964844 112.238281 C 24.230469 110.441406 24.542969 108.65625 24.898438 106.875 C 25.253906 105.09375 25.652344 103.320312 26.09375 101.5625 C 26.535156 99.800781 27.019531 98.050781 27.546875 96.3125 C 28.074219 94.574219 28.644531 92.851562 29.257812 91.144531 C 29.871094 89.433594 30.523438 87.738281 31.21875 86.0625 C 31.914062 84.386719 32.652344 82.726562 33.429688 81.085938 C 34.207031 79.445312 35.023438 77.824219 35.878906 76.222656 C 36.734375 74.621094 37.628906 73.042969 38.5625 71.484375 C 39.5 69.925781 40.46875 68.394531 41.480469 66.882812 C 42.488281 65.375 43.535156 63.890625 44.617188 62.433594 C 45.699219 60.976562 46.816406 59.542969 47.96875 58.140625 C 49.121094 56.738281 50.304688 55.363281 51.527344 54.019531 C 52.746094 52.671875 53.996094 51.359375 55.28125 50.074219 C 56.566406 48.792969 57.882812 47.539062 59.226562 46.320312 C 60.574219 45.101562 61.949219 43.917969 63.351562 42.765625 C 64.753906 41.613281 66.1875 40.496094 67.644531 39.417969 C 69.105469 38.335938 70.589844 37.289062 72.097656 36.28125 C 73.609375 35.273438 75.140625 34.304688 76.699219 33.371094 C 78.257812 32.4375 79.835938 31.542969 81.4375 30.6875 C 83.039062 29.832031 84.660156 29.015625 86.304688 28.238281 C 87.945312 27.464844 89.605469 26.726562 91.28125 26.035156 C 92.960938 25.339844 94.652344 24.6875 96.363281 24.074219 C 98.074219 23.464844 99.796875 22.894531 101.535156 22.367188 C 103.273438 21.839844 105.023438 21.355469 106.785156 20.914062 C 108.546875 20.476562 110.316406 20.078125 112.097656 19.722656 C 113.878906 19.371094 115.667969 19.058594 117.460938 18.792969 C 119.257812 18.527344 121.058594 18.304688 122.867188 18.128906 C 124.675781 17.949219 126.484375 17.816406 128.296875 17.726562 C 130.113281 17.636719 131.925781 17.59375 133.742188 17.59375 L 134.144531 17.59375 C 136.871094 17.601562 139.597656 17.710938 142.316406 17.917969 C 145.039062 18.128906 147.746094 18.4375 150.445312 18.84375 C 153.140625 19.253906 155.820312 19.761719 158.480469 20.367188 C 161.140625 20.972656 163.773438 21.675781 166.382812 22.476562 C 168.992188 23.273438 171.566406 24.171875 174.109375 25.160156 C 176.652344 26.148438 179.152344 27.230469 181.617188 28.40625 C 184.078125 29.582031 186.496094 30.84375 188.863281 32.195312 C 191.234375 33.550781 193.550781 34.988281 195.8125 36.511719 C 198.078125 38.035156 200.28125 39.636719 202.425781 41.324219 C 204.570312 43.011719 206.652344 44.773438 208.667969 46.613281 C 210.683594 48.449219 212.625 50.363281 214.5 52.34375 C 216.375 54.328125 218.175781 56.375 219.898438 58.492188 C 221.621094 60.605469 223.265625 62.78125 224.828125 65.019531 C 226.390625 67.253906 227.867188 69.542969 229.261719 71.890625 C 230.65625 74.234375 231.960938 76.628906 233.179688 79.070312 C 234.398438 81.511719 235.523438 83.996094 236.558594 86.519531 C 237.59375 89.042969 238.53125 91.601562 239.378906 94.195312 C 240.222656 96.789062 240.972656 99.410156 241.625 102.0625 C 242.277344 104.710938 242.832031 107.378906 243.289062 110.070312 C 243.746094 112.757812 244.101562 115.460938 244.355469 118.179688 C 244.613281 120.894531 244.769531 123.617188 244.824219 126.34375 C 244.882812 129.070312 244.835938 131.796875 244.691406 134.523438 C 244.546875 137.246094 244.300781 139.960938 243.957031 142.667969 C 243.609375 145.375 243.167969 148.066406 242.621094 150.738281 C 242.078125 153.410156 241.4375 156.0625 240.699219 158.6875 C 239.960938 161.316406 239.125 163.910156 238.195312 166.476562 C 237.265625 169.039062 236.242188 171.566406 235.125 174.054688 C 234.007812 176.546875 232.800781 178.988281 231.503906 181.390625 C 230.207031 183.789062 228.824219 186.140625 227.355469 188.4375 C 225.882812 190.738281 224.332031 192.976562 222.695312 195.160156 C 221.0625 197.347656 219.347656 199.464844 217.554688 201.523438 C 215.765625 203.582031 213.898438 205.570312 211.960938 207.492188 Z M 278.125 264.160156 L 269.632812 272.097656 L 229.34375 226.882812 L 237.28125 218.34375 Z M 366.640625 339.867188 C 368.300781 341.4375 369.589844 343.269531 370.511719 345.359375 C 371.433594 347.449219 371.921875 349.636719 371.96875 351.921875 C 371.9375 353.796875 371.550781 355.59375 370.8125 357.316406 C 370.074219 359.039062 369.035156 360.554688 367.695312 361.871094 C 366.933594 362.585938 366.109375 363.222656 365.222656 363.78125 C 364.335938 364.335938 363.40625 364.800781 362.425781 365.171875 C 361.449219 365.546875 360.445312 365.820312 359.410156 365.996094 C 358.378906 366.171875 357.339844 366.246094 356.292969 366.21875 C 355.25 366.1875 354.214844 366.058594 353.195312 365.828125 C 352.171875 365.597656 351.183594 365.269531 350.226562 364.847656 C 349.269531 364.421875 348.363281 363.910156 347.507812 363.304688 C 346.652344 362.703125 345.863281 362.023438 345.140625 361.265625 C 323.289062 339.53125 301.46875 317.710938 279.679688 295.808594 C 279.277344 295.441406 278.914062 295.039062 278.597656 294.597656 C 278.277344 294.15625 278.007812 293.683594 277.785156 293.1875 C 277.566406 292.6875 277.402344 292.171875 277.289062 291.636719 C 277.179688 291.105469 277.125 290.5625 277.125 290.019531 C 277.128906 289.472656 277.1875 288.933594 277.304688 288.402344 C 277.417969 287.871094 277.589844 287.355469 277.8125 286.859375 C 278.039062 286.363281 278.3125 285.894531 278.636719 285.453125 C 278.957031 285.015625 279.324219 284.613281 279.730469 284.253906 C 280.6875 283.296875 281.589844 282.34375 282.546875 281.441406 C 284.90625 278.976562 287.367188 276.464844 289.929688 274.15625 C 290.992188 273.285156 292.148438 272.566406 293.394531 271.996094 C 293.898438 271.695312 294.453125 271.390625 295.003906 271.089844 C 295.6875 271.484375 296.390625 271.835938 297.113281 272.144531 C 298.679688 272.761719 300.105469 273.613281 301.382812 274.707031 C 320.425781 293.597656 341.171875 314.296875 366.640625 339.867188 Z M 366.640625 339.867188 " fill-opacity="1" fill-rule="nonzero"/></g></svg>