<svg xmlns="http://www.w3.org/2000/svg" xmlns:xlink="http://www.w3.org/1999/xlink" width="500" zoomAndPan="magnify" viewBox="0 0 375 374.999991" height="500" preserveAspectRatio="xMidYMid meet" version="1.0"><defs><clipPath id="cec6c5b21a"><path d="M 0 44.296875 L 375 44.296875 L 375 330.796875 L 0 330.796875 Z M 0 44.296875 " clip-rule="nonzero"/></clipPath></defs><g clip-path="url(#cec6c5b21a)"><path fill="#9cb3c1" d="M 247.019531 190.921875 C 257.832031 215.539062 282.429688 232.722656 311.042969 232.722656 C 339.992188 232.722656 363.9375 216 374.558594 190.921875 C 371.585938 190.921875 365.390625 190.921875 357.367188 190.921875 L 315.109375 61.851562 L 338.488281 58.429688 L 338.488281 44.296875 L 32.933594 44.296875 L 32.933594 58.429688 L 57.714844 62.066406 L 15.527344 190.921875 C 9.0625 190.921875 3.683594 190.921875 0.265625 190.921875 C 11.078125 215.539062 35.683594 232.722656 64.292969 232.722656 C 93.242188 232.722656 117.191406 216 127.808594 190.921875 C 124.835938 190.921875 118.640625 190.921875 110.621094 190.921875 L 68.972656 63.710938 L 171.859375 78.800781 L 158.902344 276.394531 L 110.585938 276.394531 C 102.019531 276.394531 95.070312 283.335938 95.070312 291.90625 L 50.636719 306.128906 C 43.847656 306.128906 38.351562 311.636719 38.351562 318.40625 C 38.351562 325.191406 43.847656 330.699219 50.636719 330.699219 L 316.992188 330.699219 C 323.78125 330.699219 329.285156 325.191406 329.285156 318.40625 C 329.285156 311.636719 323.78125 306.128906 316.992188 306.128906 L 308.589844 306.128906 L 277.558594 291.90625 C 277.558594 283.335938 270.609375 276.394531 262.042969 276.394531 L 212.386719 276.394531 L 199.417969 78.820312 L 304.003906 63.484375 L 262.269531 190.921875 C 255.8125 190.921875 250.4375 190.921875 247.019531 190.921875 Z M 21.652344 190.921875 L 63.066406 76.089844 L 104.484375 190.921875 C 80.742188 190.921875 45.511719 190.921875 21.652344 190.921875 Z M 309.828125 76.089844 L 351.242188 190.921875 C 327.496094 190.921875 292.261719 190.921875 268.410156 190.921875 Z M 309.828125 76.089844 " fill-opacity="1" fill-rule="nonzero"/></g></svg>