<svg xmlns="http://www.w3.org/2000/svg" xmlns:xlink="http://www.w3.org/1999/xlink" width="500" zoomAndPan="magnify" viewBox="0 0 375 374.999991" height="500" preserveAspectRatio="xMidYMid meet" version="1.0"><path fill="#9cb3c1" d="M 2.398438 86.046875 L 53.945312 266.167969 L 53.945312 224.003906 L 13.550781 82.855469 C 13.453125 82.53125 13.390625 82.199219 13.359375 81.859375 C 13.328125 81.519531 13.328125 81.179688 13.363281 80.84375 C 13.398438 80.503906 13.464844 80.171875 13.5625 79.847656 C 13.660156 79.519531 13.789062 79.207031 13.949219 78.90625 C 14.109375 78.605469 14.296875 78.324219 14.511719 78.058594 C 14.726562 77.792969 14.964844 77.554688 15.222656 77.335938 C 15.484375 77.117188 15.765625 76.925781 16.0625 76.761719 C 16.363281 76.597656 16.671875 76.464844 16.996094 76.363281 L 53.945312 65.246094 L 53.945312 53.132812 L 13.65625 65.253906 C 13.132812 65.414062 12.621094 65.601562 12.117188 65.8125 C 11.613281 66.023438 11.121094 66.257812 10.640625 66.515625 C 10.160156 66.777344 9.691406 67.058594 9.238281 67.359375 C 8.785156 67.664062 8.347656 67.992188 7.925781 68.335938 C 7.503906 68.683594 7.101562 69.050781 6.714844 69.433594 C 6.328125 69.820312 5.960938 70.222656 5.613281 70.644531 C 5.265625 71.066406 4.9375 71.503906 4.632812 71.957031 C 4.328125 72.40625 4.046875 72.875 3.785156 73.355469 C 3.527344 73.835938 3.289062 74.328125 3.078125 74.828125 C 2.867188 75.332031 2.679688 75.84375 2.515625 76.367188 C 2.351562 76.886719 2.214844 77.414062 2.105469 77.949219 C 1.992188 78.484375 1.90625 79.023438 1.847656 79.566406 C 1.789062 80.105469 1.753906 80.652344 1.75 81.199219 C 1.742188 81.742188 1.761719 82.289062 1.808594 82.832031 C 1.855469 83.375 1.925781 83.917969 2.023438 84.453125 C 2.121094 84.992188 2.246094 85.523438 2.398438 86.046875 Z M 2.398438 86.046875 " fill-opacity="1" fill-rule="nonzero"/><path fill="#9cb3c1" d="M 361.054688 65.253906 L 320.765625 53.132812 L 320.765625 65.246094 L 357.710938 76.363281 C 358.035156 76.464844 358.347656 76.597656 358.644531 76.761719 C 358.945312 76.925781 359.222656 77.117188 359.484375 77.335938 C 359.746094 77.554688 359.984375 77.792969 360.199219 78.058594 C 360.414062 78.324219 360.601562 78.605469 360.761719 78.90625 C 360.917969 79.207031 361.046875 79.519531 361.148438 79.84375 C 361.246094 80.171875 361.3125 80.503906 361.347656 80.839844 C 361.382812 81.179688 361.382812 81.519531 361.351562 81.855469 C 361.320312 82.195312 361.253906 82.527344 361.160156 82.855469 L 320.765625 224.003906 L 320.765625 266.167969 L 372.3125 86.046875 C 372.460938 85.519531 372.585938 84.988281 372.683594 84.453125 C 372.785156 83.914062 372.855469 83.375 372.902344 82.832031 C 372.949219 82.289062 372.96875 81.742188 372.960938 81.195312 C 372.953125 80.652344 372.921875 80.105469 372.863281 79.5625 C 372.804688 79.019531 372.71875 78.480469 372.605469 77.949219 C 372.496094 77.414062 372.355469 76.886719 372.195312 76.363281 C 372.03125 75.84375 371.84375 75.332031 371.632812 74.828125 C 371.417969 74.324219 371.183594 73.835938 370.921875 73.355469 C 370.664062 72.875 370.382812 72.40625 370.074219 71.953125 C 369.769531 71.503906 369.445312 71.066406 369.097656 70.644531 C 368.75 70.222656 368.382812 69.820312 367.996094 69.433594 C 367.609375 69.046875 367.207031 68.683594 366.785156 68.335938 C 366.359375 67.988281 365.921875 67.664062 365.46875 67.359375 C 365.015625 67.058594 364.550781 66.777344 364.070312 66.515625 C 363.585938 66.257812 363.09375 66.023438 362.59375 65.8125 C 362.089844 65.601562 361.574219 65.414062 361.054688 65.253906 Z M 361.054688 65.253906 " fill-opacity="1" fill-rule="nonzero"/><path fill="#9cb3c1" d="M 256.960938 51.1875 L 117.75 51.1875 C 117.367188 51.1875 116.992188 51.226562 116.617188 51.300781 C 116.246094 51.375 115.882812 51.484375 115.53125 51.628906 C 115.179688 51.777344 114.84375 51.953125 114.527344 52.167969 C 114.210938 52.378906 113.917969 52.617188 113.648438 52.886719 C 113.378906 53.15625 113.136719 53.449219 112.925781 53.765625 C 112.714844 54.082031 112.535156 54.417969 112.390625 54.769531 C 112.246094 55.121094 112.132812 55.484375 112.058594 55.859375 C 111.984375 56.230469 111.949219 56.609375 111.949219 56.988281 C 111.949219 57.371094 111.984375 57.746094 112.058594 58.121094 C 112.132812 58.496094 112.246094 58.859375 112.390625 59.210938 C 112.535156 59.5625 112.714844 59.894531 112.925781 60.210938 C 113.136719 60.527344 113.378906 60.820312 113.648438 61.089844 C 113.917969 61.359375 114.210938 61.601562 114.527344 61.8125 C 114.84375 62.023438 115.179688 62.203125 115.53125 62.347656 C 115.882812 62.496094 116.246094 62.605469 116.617188 62.679688 C 116.992188 62.753906 117.367188 62.789062 117.75 62.789062 L 256.960938 62.789062 C 257.339844 62.789062 257.71875 62.753906 258.09375 62.679688 C 258.464844 62.605469 258.828125 62.496094 259.179688 62.347656 C 259.53125 62.203125 259.867188 62.023438 260.183594 61.8125 C 260.5 61.601562 260.792969 61.359375 261.0625 61.089844 C 261.332031 60.820312 261.570312 60.527344 261.785156 60.210938 C 261.996094 59.894531 262.171875 59.5625 262.320312 59.210938 C 262.464844 58.859375 262.574219 58.496094 262.648438 58.121094 C 262.722656 57.746094 262.761719 57.371094 262.761719 56.988281 C 262.761719 56.609375 262.722656 56.230469 262.648438 55.859375 C 262.574219 55.484375 262.464844 55.121094 262.320312 54.769531 C 262.171875 54.417969 261.996094 54.082031 261.785156 53.765625 C 261.570312 53.449219 261.332031 53.15625 261.0625 52.886719 C 260.792969 52.617188 260.5 52.378906 260.183594 52.167969 C 259.867188 51.953125 259.53125 51.777344 259.179688 51.628906 C 258.828125 51.484375 258.464844 51.375 258.09375 51.300781 C 257.71875 51.226562 257.339844 51.1875 256.960938 51.1875 Z M 256.960938 51.1875 " fill-opacity="1" fill-rule="nonzero"/><path fill="#9cb3c1" d="M 256.960938 74.390625 L 117.75 74.390625 C 117.367188 74.390625 116.992188 74.429688 116.617188 74.503906 C 116.246094 74.578125 115.882812 74.6875 115.53125 74.832031 C 115.179688 74.976562 114.84375 75.15625 114.527344 75.367188 C 114.210938 75.582031 113.917969 75.820312 113.648438 76.089844 C 113.378906 76.359375 113.136719 76.652344 112.925781 76.96875 C 112.714844 77.285156 112.535156 77.621094 112.390625 77.972656 C 112.246094 78.324219 112.132812 78.6875 112.058594 79.058594 C 111.984375 79.433594 111.949219 79.808594 111.949219 80.191406 C 111.949219 80.574219 111.984375 80.949219 112.058594 81.324219 C 112.132812 81.695312 112.246094 82.058594 112.390625 82.410156 C 112.535156 82.761719 112.714844 83.097656 112.925781 83.414062 C 113.136719 83.730469 113.378906 84.023438 113.648438 84.292969 C 113.917969 84.5625 114.210938 84.800781 114.527344 85.015625 C 114.84375 85.226562 115.179688 85.40625 115.53125 85.550781 C 115.882812 85.695312 116.246094 85.804688 116.617188 85.878906 C 116.992188 85.953125 117.367188 85.992188 117.75 85.992188 L 256.960938 85.992188 C 257.339844 85.992188 257.71875 85.953125 258.09375 85.878906 C 258.464844 85.804688 258.828125 85.695312 259.179688 85.550781 C 259.53125 85.40625 259.867188 85.226562 260.183594 85.015625 C 260.5 84.800781 260.792969 84.5625 261.0625 84.292969 C 261.332031 84.023438 261.570312 83.730469 261.785156 83.414062 C 261.996094 83.097656 262.171875 82.761719 262.320312 82.410156 C 262.464844 82.058594 262.574219 81.695312 262.648438 81.324219 C 262.722656 80.949219 262.761719 80.574219 262.761719 80.191406 C 262.761719 79.808594 262.722656 79.433594 262.648438 79.058594 C 262.574219 78.6875 262.464844 78.324219 262.320312 77.972656 C 262.171875 77.621094 261.996094 77.285156 261.785156 76.96875 C 261.570312 76.652344 261.332031 76.359375 261.0625 76.089844 C 260.792969 75.820312 260.5 75.582031 260.183594 75.367188 C 259.867188 75.15625 259.53125 74.976562 259.179688 74.832031 C 258.828125 74.6875 258.464844 74.578125 258.09375 74.503906 C 257.71875 74.429688 257.339844 74.390625 256.960938 74.390625 Z M 256.960938 74.390625 " fill-opacity="1" fill-rule="nonzero"/><path fill="#9cb3c1" d="M 256.960938 97.59375 L 117.75 97.59375 C 117.367188 97.59375 116.992188 97.628906 116.617188 97.703125 C 116.246094 97.777344 115.882812 97.886719 115.53125 98.035156 C 115.179688 98.179688 114.84375 98.359375 114.527344 98.570312 C 114.210938 98.78125 113.917969 99.023438 113.648438 99.292969 C 113.378906 99.5625 113.136719 99.855469 112.925781 100.171875 C 112.714844 100.488281 112.535156 100.820312 112.390625 101.171875 C 112.246094 101.527344 112.132812 101.886719 112.058594 102.261719 C 111.984375 102.636719 111.949219 103.011719 111.949219 103.394531 C 111.949219 103.773438 111.984375 104.152344 112.058594 104.523438 C 112.132812 104.898438 112.246094 105.261719 112.390625 105.613281 C 112.535156 105.964844 112.714844 106.300781 112.925781 106.617188 C 113.136719 106.933594 113.378906 107.226562 113.648438 107.496094 C 113.917969 107.765625 114.210938 108.003906 114.527344 108.214844 C 114.84375 108.429688 115.179688 108.605469 115.53125 108.753906 C 115.882812 108.898438 116.246094 109.007812 116.617188 109.082031 C 116.992188 109.15625 117.367188 109.195312 117.75 109.195312 L 256.960938 109.195312 C 257.339844 109.195312 257.71875 109.15625 258.09375 109.082031 C 258.464844 109.007812 258.828125 108.898438 259.179688 108.753906 C 259.53125 108.605469 259.867188 108.429688 260.183594 108.214844 C 260.5 108.003906 260.792969 107.765625 261.0625 107.496094 C 261.332031 107.226562 261.570312 106.933594 261.785156 106.617188 C 261.996094 106.300781 262.171875 105.964844 262.320312 105.613281 C 262.464844 105.261719 262.574219 104.898438 262.648438 104.523438 C 262.722656 104.152344 262.761719 103.773438 262.761719 103.394531 C 262.761719 103.011719 262.722656 102.636719 262.648438 102.261719 C 262.574219 101.886719 262.464844 101.527344 262.320312 101.171875 C 262.171875 100.820312 261.996094 100.488281 261.785156 100.171875 C 261.570312 99.855469 261.332031 99.5625 261.0625 99.292969 C 260.792969 99.023438 260.5 98.78125 260.183594 98.570312 C 259.867188 98.359375 259.53125 98.179688 259.179688 98.035156 C 258.828125 97.886719 258.464844 97.777344 258.09375 97.703125 C 257.71875 97.628906 257.339844 97.59375 256.960938 97.59375 Z M 256.960938 97.59375 " fill-opacity="1" fill-rule="nonzero"/><path fill="#9cb3c1" d="M 256.960938 120.792969 L 117.75 120.792969 C 117.367188 120.792969 116.992188 120.832031 116.617188 120.90625 C 116.246094 120.980469 115.882812 121.089844 115.53125 121.234375 C 115.179688 121.382812 114.84375 121.5625 114.527344 121.773438 C 114.210938 121.984375 113.917969 122.222656 113.648438 122.492188 C 113.378906 122.761719 113.136719 123.054688 112.925781 123.371094 C 112.714844 123.6875 112.535156 124.023438 112.390625 124.375 C 112.246094 124.726562 112.132812 125.089844 112.058594 125.464844 C 111.984375 125.835938 111.949219 126.214844 111.949219 126.59375 C 111.949219 126.976562 111.984375 127.351562 112.058594 127.726562 C 112.132812 128.101562 112.246094 128.464844 112.390625 128.816406 C 112.535156 129.167969 112.714844 129.5 112.925781 129.816406 C 113.136719 130.132812 113.378906 130.425781 113.648438 130.695312 C 113.917969 130.964844 114.210938 131.207031 114.527344 131.417969 C 114.84375 131.628906 115.179688 131.808594 115.53125 131.953125 C 115.882812 132.101562 116.246094 132.210938 116.617188 132.285156 C 116.992188 132.359375 117.367188 132.394531 117.75 132.394531 L 256.960938 132.394531 C 257.339844 132.394531 257.71875 132.359375 258.09375 132.285156 C 258.464844 132.210938 258.828125 132.101562 259.179688 131.953125 C 259.53125 131.808594 259.867188 131.628906 260.183594 131.417969 C 260.5 131.207031 260.792969 130.964844 261.0625 130.695312 C 261.332031 130.425781 261.570312 130.132812 261.785156 129.816406 C 261.996094 129.5 262.171875 129.167969 262.320312 128.816406 C 262.464844 128.464844 262.574219 128.101562 262.648438 127.726562 C 262.722656 127.351562 262.761719 126.976562 262.761719 126.59375 C 262.761719 126.214844 262.722656 125.835938 262.648438 125.464844 C 262.574219 125.089844 262.464844 124.726562 262.320312 124.375 C 262.171875 124.023438 261.996094 123.6875 261.785156 123.371094 C 261.570312 123.054688 261.332031 122.761719 261.0625 122.492188 C 260.792969 122.222656 260.5 121.984375 260.183594 121.773438 C 259.867188 121.5625 259.53125 121.382812 259.179688 121.234375 C 258.828125 121.089844 258.464844 120.980469 258.09375 120.90625 C 257.71875 120.832031 257.339844 120.792969 256.960938 120.792969 Z M 256.960938 120.792969 " fill-opacity="1" fill-rule="nonzero"/><path fill="#9cb3c1" d="M 256.960938 143.996094 L 117.75 143.996094 C 117.367188 143.996094 116.992188 144.035156 116.617188 144.109375 C 116.246094 144.183594 115.882812 144.292969 115.53125 144.4375 C 115.179688 144.582031 114.84375 144.761719 114.527344 144.972656 C 114.210938 145.1875 113.917969 145.425781 113.648438 145.695312 C 113.378906 145.964844 113.136719 146.257812 112.925781 146.574219 C 112.714844 146.890625 112.535156 147.226562 112.390625 147.578125 C 112.246094 147.929688 112.132812 148.292969 112.058594 148.664062 C 111.984375 149.039062 111.949219 149.417969 111.949219 149.796875 C 111.949219 150.179688 111.984375 150.554688 112.058594 150.929688 C 112.132812 151.300781 112.246094 151.664062 112.390625 152.015625 C 112.535156 152.367188 112.714844 152.703125 112.925781 153.019531 C 113.136719 153.335938 113.378906 153.628906 113.648438 153.898438 C 113.917969 154.167969 114.210938 154.410156 114.527344 154.621094 C 114.84375 154.832031 115.179688 155.011719 115.53125 155.15625 C 115.882812 155.300781 116.246094 155.410156 116.617188 155.484375 C 116.992188 155.558594 117.367188 155.597656 117.75 155.597656 L 256.960938 155.597656 C 257.339844 155.597656 257.71875 155.558594 258.09375 155.484375 C 258.464844 155.410156 258.828125 155.300781 259.179688 155.15625 C 259.53125 155.011719 259.867188 154.832031 260.183594 154.621094 C 260.5 154.410156 260.792969 154.167969 261.0625 153.898438 C 261.332031 153.628906 261.570312 153.335938 261.785156 153.019531 C 261.996094 152.703125 262.171875 152.367188 262.320312 152.015625 C 262.464844 151.664062 262.574219 151.300781 262.648438 150.929688 C 262.722656 150.554688 262.761719 150.179688 262.761719 149.796875 C 262.761719 149.417969 262.722656 149.039062 262.648438 148.664062 C 262.574219 148.292969 262.464844 147.929688 262.320312 147.578125 C 262.171875 147.226562 261.996094 146.890625 261.785156 146.574219 C 261.570312 146.257812 261.332031 145.964844 261.0625 145.695312 C 260.792969 145.425781 260.5 145.1875 260.183594 144.972656 C 259.867188 144.761719 259.53125 144.582031 259.179688 144.4375 C 258.828125 144.292969 258.464844 144.183594 258.09375 144.109375 C 257.71875 144.035156 257.339844 143.996094 256.960938 143.996094 Z M 256.960938 143.996094 " fill-opacity="1" fill-rule="nonzero"/><path fill="#9cb3c1" d="M 256.960938 167.199219 L 117.75 167.199219 C 117.367188 167.199219 116.992188 167.234375 116.617188 167.308594 C 116.246094 167.382812 115.882812 167.492188 115.53125 167.640625 C 115.179688 167.785156 114.84375 167.964844 114.527344 168.175781 C 114.210938 168.386719 113.917969 168.628906 113.648438 168.898438 C 113.378906 169.167969 113.136719 169.460938 112.925781 169.777344 C 112.714844 170.09375 112.535156 170.425781 112.390625 170.777344 C 112.246094 171.132812 112.132812 171.492188 112.058594 171.867188 C 111.984375 172.242188 111.949219 172.617188 111.949219 173 C 111.949219 173.378906 111.984375 173.757812 112.058594 174.128906 C 112.132812 174.503906 112.246094 174.867188 112.390625 175.21875 C 112.535156 175.570312 112.714844 175.90625 112.925781 176.222656 C 113.136719 176.539062 113.378906 176.832031 113.648438 177.101562 C 113.917969 177.371094 114.210938 177.609375 114.527344 177.820312 C 114.84375 178.035156 115.179688 178.210938 115.53125 178.359375 C 115.882812 178.503906 116.246094 178.613281 116.617188 178.6875 C 116.992188 178.761719 117.367188 178.800781 117.75 178.800781 L 256.960938 178.800781 C 257.339844 178.800781 257.71875 178.761719 258.09375 178.6875 C 258.464844 178.613281 258.828125 178.503906 259.179688 178.359375 C 259.53125 178.210938 259.867188 178.035156 260.183594 177.820312 C 260.5 177.609375 260.792969 177.371094 261.0625 177.101562 C 261.332031 176.832031 261.570312 176.539062 261.785156 176.222656 C 261.996094 175.90625 262.171875 175.570312 262.320312 175.21875 C 262.464844 174.867188 262.574219 174.503906 262.648438 174.128906 C 262.722656 173.757812 262.761719 173.378906 262.761719 173 C 262.761719 172.617188 262.722656 172.242188 262.648438 171.867188 C 262.574219 171.492188 262.464844 171.132812 262.320312 170.777344 C 262.171875 170.425781 261.996094 170.09375 261.785156 169.777344 C 261.570312 169.460938 261.332031 169.167969 261.0625 168.898438 C 260.792969 168.628906 260.5 168.386719 260.183594 168.175781 C 259.867188 167.964844 259.53125 167.785156 259.179688 167.640625 C 258.828125 167.492188 258.464844 167.382812 258.09375 167.308594 C 257.71875 167.234375 257.339844 167.199219 256.960938 167.199219 Z M 256.960938 167.199219 " fill-opacity="1" fill-rule="nonzero"/><path fill="#9cb3c1" d="M 262.761719 196.199219 C 262.761719 195.820312 262.722656 195.441406 262.648438 195.070312 C 262.574219 194.695312 262.464844 194.332031 262.320312 193.980469 C 262.171875 193.628906 261.996094 193.292969 261.785156 192.976562 C 261.570312 192.660156 261.332031 192.367188 261.0625 192.097656 C 260.792969 191.828125 260.5 191.589844 260.183594 191.378906 C 259.867188 191.167969 259.53125 190.988281 259.179688 190.84375 C 258.828125 190.695312 258.464844 190.585938 258.09375 190.511719 C 257.71875 190.4375 257.339844 190.398438 256.960938 190.398438 L 117.75 190.398438 C 117.367188 190.398438 116.992188 190.4375 116.617188 190.511719 C 116.246094 190.585938 115.882812 190.695312 115.53125 190.839844 C 115.179688 190.988281 114.84375 191.167969 114.527344 191.378906 C 114.210938 191.589844 113.917969 191.828125 113.648438 192.097656 C 113.378906 192.367188 113.136719 192.660156 112.925781 192.976562 C 112.714844 193.292969 112.535156 193.628906 112.390625 193.980469 C 112.246094 194.332031 112.132812 194.695312 112.058594 195.070312 C 111.984375 195.441406 111.949219 195.820312 111.949219 196.199219 C 111.949219 196.582031 111.984375 196.957031 112.058594 197.332031 C 112.132812 197.707031 112.246094 198.070312 112.390625 198.421875 C 112.535156 198.773438 112.714844 199.105469 112.925781 199.421875 C 113.136719 199.738281 113.378906 200.03125 113.648438 200.300781 C 113.917969 200.570312 114.210938 200.8125 114.527344 201.023438 C 114.84375 201.234375 115.179688 201.414062 115.53125 201.558594 C 115.882812 201.707031 116.246094 201.816406 116.617188 201.890625 C 116.992188 201.964844 117.367188 202 117.75 202 L 256.960938 202 C 257.339844 202 257.71875 201.964844 258.09375 201.890625 C 258.464844 201.816406 258.828125 201.707031 259.179688 201.558594 C 259.53125 201.414062 259.867188 201.234375 260.183594 201.023438 C 260.5 200.8125 260.792969 200.570312 261.0625 200.300781 C 261.332031 200.03125 261.570312 199.738281 261.785156 199.421875 C 261.996094 199.105469 262.171875 198.773438 262.320312 198.421875 C 262.464844 198.070312 262.574219 197.707031 262.648438 197.332031 C 262.722656 196.957031 262.761719 196.582031 262.761719 196.199219 Z M 262.761719 196.199219 " fill-opacity="1" fill-rule="nonzero"/><path fill="#9cb3c1" d="M 111.949219 242.605469 C 111.949219 242.984375 111.984375 243.363281 112.058594 243.734375 C 112.132812 244.109375 112.246094 244.472656 112.390625 244.824219 C 112.535156 245.175781 112.714844 245.511719 112.925781 245.828125 C 113.136719 246.144531 113.378906 246.4375 113.648438 246.707031 C 113.917969 246.976562 114.210938 247.214844 114.527344 247.425781 C 114.84375 247.640625 115.179688 247.816406 115.53125 247.964844 C 115.882812 248.109375 116.246094 248.21875 116.617188 248.292969 C 116.992188 248.367188 117.367188 248.40625 117.75 248.40625 L 205.820312 248.40625 C 206.214844 244.425781 207.097656 240.558594 208.464844 236.804688 L 117.75 236.804688 C 117.367188 236.804688 116.992188 236.839844 116.617188 236.914062 C 116.246094 236.988281 115.882812 237.101562 115.53125 237.246094 C 115.179688 237.390625 114.84375 237.570312 114.527344 237.78125 C 114.210938 237.992188 113.917969 238.234375 113.648438 238.503906 C 113.378906 238.773438 113.136719 239.066406 112.925781 239.382812 C 112.714844 239.699219 112.535156 240.03125 112.390625 240.382812 C 112.246094 240.738281 112.132812 241.097656 112.058594 241.472656 C 111.984375 241.847656 111.949219 242.222656 111.949219 242.605469 Z M 111.949219 242.605469 " fill-opacity="1" fill-rule="nonzero"/><path fill="#9cb3c1" d="M 82.945312 349.914062 C 82.566406 349.914062 82.1875 349.875 81.816406 349.800781 C 81.441406 349.726562 81.078125 349.617188 80.726562 349.46875 C 80.375 349.324219 80.042969 349.144531 79.726562 348.933594 C 79.410156 348.722656 79.117188 348.480469 78.847656 348.210938 C 78.578125 347.941406 78.335938 347.648438 78.125 347.332031 C 77.914062 347.015625 77.734375 346.683594 77.589844 346.332031 C 77.445312 345.980469 77.332031 345.617188 77.257812 345.242188 C 77.183594 344.871094 77.148438 344.492188 77.144531 344.113281 L 77.144531 30.886719 C 77.148438 30.507812 77.183594 30.128906 77.257812 29.757812 C 77.332031 29.382812 77.445312 29.019531 77.589844 28.667969 C 77.734375 28.316406 77.914062 27.984375 78.125 27.667969 C 78.335938 27.351562 78.578125 27.058594 78.847656 26.789062 C 79.117188 26.519531 79.410156 26.277344 79.726562 26.066406 C 80.042969 25.855469 80.375 25.675781 80.726562 25.53125 C 81.078125 25.382812 81.441406 25.273438 81.816406 25.199219 C 82.1875 25.125 82.566406 25.085938 82.945312 25.085938 L 291.761719 25.085938 C 292.144531 25.085938 292.519531 25.125 292.894531 25.199219 C 293.269531 25.273438 293.628906 25.382812 293.980469 25.53125 C 294.332031 25.675781 294.667969 25.855469 294.984375 26.066406 C 295.300781 26.277344 295.59375 26.519531 295.863281 26.789062 C 296.132812 27.058594 296.371094 27.351562 296.585938 27.667969 C 296.796875 27.984375 296.972656 28.316406 297.121094 28.667969 C 297.265625 29.019531 297.375 29.382812 297.453125 29.757812 C 297.527344 30.128906 297.5625 30.507812 297.5625 30.886719 L 297.5625 232.851562 C 299.046875 236 300.167969 239.277344 300.925781 242.671875 C 301.6875 246.070312 302.066406 249.511719 302.066406 252.996094 C 302.066406 256.476562 301.6875 259.917969 300.925781 263.316406 C 300.167969 266.714844 299.046875 269.988281 297.5625 273.140625 L 297.5625 304.960938 L 298.808594 304.960938 C 302.425781 304.960938 305.878906 305.726562 309.164062 307.246094 L 309.164062 30.886719 C 309.164062 30.316406 309.136719 29.75 309.078125 29.183594 C 309.023438 28.617188 308.9375 28.050781 308.828125 27.492188 C 308.714844 26.933594 308.578125 26.382812 308.410156 25.839844 C 308.246094 25.292969 308.054688 24.757812 307.835938 24.230469 C 307.617188 23.703125 307.375 23.191406 307.105469 22.6875 C 306.835938 22.1875 306.542969 21.699219 306.226562 21.222656 C 305.910156 20.75 305.570312 20.292969 305.207031 19.851562 C 304.847656 19.414062 304.464844 18.992188 304.0625 18.589844 C 303.660156 18.183594 303.238281 17.804688 302.796875 17.441406 C 302.355469 17.082031 301.898438 16.742188 301.425781 16.425781 C 300.953125 16.109375 300.464844 15.816406 299.960938 15.546875 C 299.460938 15.277344 298.945312 15.035156 298.417969 14.816406 C 297.894531 14.597656 297.359375 14.40625 296.8125 14.238281 C 296.265625 14.074219 295.714844 13.933594 295.15625 13.824219 C 294.597656 13.710938 294.035156 13.628906 293.46875 13.570312 C 292.902344 13.515625 292.332031 13.488281 291.761719 13.484375 L 82.945312 13.484375 C 82.375 13.488281 81.808594 13.515625 81.242188 13.570312 C 80.675781 13.628906 80.113281 13.710938 79.554688 13.824219 C 78.996094 13.933594 78.441406 14.074219 77.898438 14.238281 C 77.351562 14.40625 76.816406 14.597656 76.289062 14.816406 C 75.765625 15.035156 75.25 15.277344 74.746094 15.546875 C 74.246094 15.816406 73.757812 16.109375 73.285156 16.425781 C 72.808594 16.742188 72.351562 17.082031 71.914062 17.441406 C 71.472656 17.804688 71.050781 18.183594 70.648438 18.589844 C 70.246094 18.992188 69.863281 19.414062 69.5 19.851562 C 69.140625 20.292969 68.800781 20.75 68.484375 21.222656 C 68.167969 21.699219 67.875 22.1875 67.605469 22.6875 C 67.335938 23.191406 67.09375 23.703125 66.875 24.230469 C 66.65625 24.757812 66.464844 25.292969 66.296875 25.839844 C 66.132812 26.382812 65.996094 26.933594 65.882812 27.492188 C 65.769531 28.050781 65.6875 28.617188 65.628906 29.183594 C 65.574219 29.75 65.546875 30.316406 65.546875 30.886719 L 65.546875 344.113281 C 65.546875 344.683594 65.574219 345.25 65.628906 345.816406 C 65.6875 346.382812 65.769531 346.949219 65.882812 347.507812 C 65.996094 348.066406 66.132812 348.617188 66.296875 349.160156 C 66.464844 349.707031 66.65625 350.242188 66.875 350.769531 C 67.09375 351.296875 67.335938 351.808594 67.605469 352.3125 C 67.875 352.8125 68.167969 353.300781 68.484375 353.777344 C 68.800781 354.25 69.140625 354.707031 69.5 355.148438 C 69.863281 355.585938 70.246094 356.007812 70.648438 356.410156 C 71.050781 356.8125 71.472656 357.195312 71.914062 357.558594 C 72.351562 357.917969 72.808594 358.257812 73.285156 358.574219 C 73.757812 358.890625 74.246094 359.183594 74.746094 359.453125 C 75.25 359.722656 75.765625 359.964844 76.289062 360.183594 C 76.816406 360.402344 77.351562 360.59375 77.898438 360.761719 C 78.441406 360.925781 78.996094 361.066406 79.554688 361.175781 C 80.113281 361.289062 80.675781 361.371094 81.242188 361.429688 C 81.808594 361.484375 82.375 361.511719 82.945312 361.515625 L 188.3125 361.515625 C 186.066406 357.96875 184.808594 354.101562 184.539062 349.914062 Z M 82.945312 349.914062 " fill-opacity="1" fill-rule="nonzero"/><path fill="#9cb3c1" d="M 298.808594 316.558594 L 280.371094 316.558594 L 280.371094 315.164062 C 280.371094 308.324219 276.78125 303.011719 271.796875 302.078125 C 273.109375 293.976562 275.703125 286.308594 279.585938 279.074219 L 279.699219 278.847656 C 281.410156 277.160156 282.9375 275.324219 284.28125 273.332031 C 285.628906 271.34375 286.761719 269.238281 287.6875 267.019531 C 288.613281 264.804688 289.308594 262.519531 289.777344 260.160156 C 290.242188 257.804688 290.472656 255.425781 290.464844 253.023438 C 290.46875 252.265625 290.449219 251.511719 290.402344 250.757812 C 290.359375 250 290.292969 249.246094 290.203125 248.496094 C 290.109375 247.746094 289.996094 246.996094 289.859375 246.253906 C 289.722656 245.507812 289.5625 244.769531 289.378906 244.035156 C 289.195312 243.300781 288.992188 242.574219 288.761719 241.851562 C 288.535156 241.128906 288.285156 240.417969 288.011719 239.710938 C 287.738281 239.003906 287.445312 238.308594 287.128906 237.621094 C 286.8125 236.933594 286.476562 236.253906 286.121094 235.585938 C 285.761719 234.921875 285.386719 234.265625 284.988281 233.621094 C 284.589844 232.976562 284.171875 232.347656 283.734375 231.730469 C 283.296875 231.113281 282.839844 230.507812 282.367188 229.917969 C 281.890625 229.328125 281.398438 228.753906 280.890625 228.195312 C 280.378906 227.636719 279.851562 227.09375 279.308594 226.570312 C 278.765625 226.042969 278.207031 225.535156 277.628906 225.042969 C 277.054688 224.550781 276.464844 224.078125 275.859375 223.621094 C 275.257812 223.167969 274.636719 222.730469 274.007812 222.3125 C 273.375 221.898438 272.730469 221.5 272.074219 221.125 C 271.417969 220.746094 270.75 220.390625 270.074219 220.054688 C 269.394531 219.71875 268.707031 219.40625 268.007812 219.113281 C 267.3125 218.820312 266.605469 218.546875 265.890625 218.300781 C 265.175781 218.050781 264.453125 217.824219 263.726562 217.617188 C 262.996094 217.414062 262.265625 217.234375 261.523438 217.074219 C 260.785156 216.914062 260.039062 216.777344 259.292969 216.667969 C 258.542969 216.554688 257.792969 216.464844 257.039062 216.398438 C 256.285156 216.332031 255.53125 216.289062 254.773438 216.269531 C 254.015625 216.25 253.261719 216.253906 252.503906 216.28125 C 251.75 216.308594 250.992188 216.359375 250.242188 216.433594 C 249.488281 216.507812 248.738281 216.605469 247.992188 216.722656 C 247.242188 216.84375 246.5 216.988281 245.761719 217.15625 C 245.023438 217.320312 244.292969 217.511719 243.566406 217.722656 C 242.839844 217.933594 242.121094 218.167969 241.40625 218.425781 C 240.695312 218.679688 239.992188 218.960938 239.296875 219.261719 C 238.601562 219.558594 237.917969 219.882812 237.242188 220.222656 C 236.570312 220.566406 235.90625 220.929688 235.253906 221.3125 C 234.601562 221.695312 233.960938 222.101562 233.335938 222.523438 C 232.707031 222.945312 232.09375 223.386719 231.492188 223.851562 C 230.894531 224.3125 230.308594 224.789062 229.738281 225.289062 C 229.167969 225.785156 228.613281 226.300781 228.074219 226.832031 C 227.539062 227.363281 227.015625 227.910156 226.511719 228.476562 C 226.007812 229.039062 225.519531 229.617188 225.050781 230.214844 C 224.582031 230.808594 224.132812 231.414062 223.703125 232.039062 C 223.273438 232.660156 222.863281 233.292969 222.46875 233.941406 C 222.078125 234.589844 221.707031 235.25 221.355469 235.917969 C 221.007812 236.589844 220.675781 237.269531 220.367188 237.960938 C 220.058594 238.652344 219.773438 239.351562 219.507812 240.0625 C 219.242188 240.769531 219 241.488281 218.78125 242.210938 C 218.558594 242.933594 218.359375 243.664062 218.183594 244.402344 C 218.011719 245.136719 217.859375 245.878906 217.726562 246.621094 C 217.597656 247.367188 217.492188 248.117188 217.410156 248.871094 C 217.324219 249.621094 217.265625 250.375 217.230469 251.132812 C 217.191406 251.886719 217.179688 252.644531 217.191406 253.398438 C 217.199219 254.15625 217.234375 254.914062 217.292969 255.667969 C 217.347656 256.421875 217.429688 257.171875 217.535156 257.921875 C 217.636719 258.671875 217.765625 259.417969 217.914062 260.160156 C 218.0625 260.902344 218.238281 261.636719 218.433594 262.367188 C 218.628906 263.101562 218.847656 263.824219 219.085938 264.542969 C 219.328125 265.257812 219.589844 265.96875 219.875 266.667969 C 220.160156 267.371094 220.464844 268.0625 220.792969 268.746094 C 221.121094 269.425781 221.46875 270.097656 221.835938 270.757812 C 222.207031 271.417969 222.59375 272.070312 223.003906 272.703125 C 223.414062 273.339844 223.839844 273.964844 224.289062 274.574219 C 224.738281 275.183594 225.203125 275.78125 225.6875 276.363281 C 226.171875 276.941406 226.675781 277.507812 227.195312 278.058594 C 227.714844 278.609375 228.25 279.140625 228.800781 279.660156 L 228.882812 279.824219 C 232.550781 286.84375 235.027344 294.261719 236.316406 302.078125 C 231.335938 303.011719 227.75 308.324219 227.75 315.164062 L 227.75 316.558594 L 209.3125 316.558594 C 208.445312 316.558594 207.582031 316.644531 206.730469 316.816406 C 205.878906 316.984375 205.050781 317.234375 204.246094 317.566406 C 203.441406 317.898438 202.679688 318.308594 201.957031 318.789062 C 201.234375 319.273438 200.566406 319.820312 199.949219 320.433594 C 199.332031 321.046875 198.785156 321.714844 198.300781 322.4375 C 197.816406 323.160156 197.40625 323.921875 197.074219 324.726562 C 196.738281 325.527344 196.488281 326.355469 196.316406 327.207031 C 196.144531 328.058594 196.058594 328.921875 196.054688 329.789062 L 196.054688 348.285156 C 196.058594 349.152344 196.144531 350.015625 196.316406 350.867188 C 196.488281 351.71875 196.738281 352.546875 197.074219 353.347656 C 197.40625 354.152344 197.816406 354.914062 198.300781 355.636719 C 198.785156 356.359375 199.332031 357.027344 199.949219 357.640625 C 200.566406 358.253906 201.234375 358.800781 201.957031 359.285156 C 202.679688 359.765625 203.445312 360.175781 204.246094 360.507812 C 205.050781 360.839844 205.878906 361.089844 206.730469 361.257812 C 207.582031 361.429688 208.445312 361.515625 209.3125 361.515625 L 298.808594 361.515625 C 299.675781 361.515625 300.539062 361.429688 301.390625 361.257812 C 302.242188 361.089844 303.070312 360.839844 303.875 360.507812 C 304.675781 360.175781 305.441406 359.765625 306.164062 359.285156 C 306.886719 358.800781 307.554688 358.253906 308.171875 357.640625 C 308.785156 357.027344 309.335938 356.359375 309.820312 355.636719 C 310.304688 354.914062 310.714844 354.152344 311.046875 353.347656 C 311.382812 352.546875 311.632812 351.71875 311.804688 350.867188 C 311.976562 350.015625 312.0625 349.152344 312.066406 348.285156 L 312.066406 329.789062 C 312.0625 328.921875 311.976562 328.058594 311.804688 327.207031 C 311.632812 326.355469 311.382812 325.527344 311.046875 324.726562 C 310.714844 323.921875 310.304688 323.160156 309.820312 322.4375 C 309.335938 321.714844 308.785156 321.046875 308.171875 320.433594 C 307.554688 319.820312 306.886719 319.269531 306.164062 318.789062 C 305.441406 318.308594 304.675781 317.898438 303.875 317.566406 C 303.070312 317.234375 302.242188 316.984375 301.390625 316.816406 C 300.539062 316.644531 299.675781 316.558594 298.808594 316.558594 Z M 300.464844 348.285156 C 300.460938 348.503906 300.417969 348.710938 300.332031 348.910156 C 300.246094 349.113281 300.128906 349.289062 299.972656 349.441406 C 299.816406 349.59375 299.636719 349.710938 299.4375 349.792969 C 299.234375 349.875 299.023438 349.914062 298.808594 349.914062 L 209.3125 349.914062 C 209.09375 349.914062 208.886719 349.875 208.683594 349.792969 C 208.480469 349.710938 208.304688 349.59375 208.148438 349.441406 C 207.992188 349.289062 207.871094 349.113281 207.789062 348.910156 C 207.703125 348.710938 207.660156 348.503906 207.65625 348.285156 L 207.65625 329.789062 C 207.660156 329.570312 207.703125 329.363281 207.789062 329.164062 C 207.871094 328.960938 207.992188 328.785156 208.148438 328.632812 C 208.304688 328.480469 208.480469 328.363281 208.683594 328.28125 C 208.886719 328.199219 209.09375 328.160156 209.3125 328.160156 L 233.550781 328.160156 C 233.933594 328.160156 234.308594 328.125 234.683594 328.050781 C 235.058594 327.976562 235.417969 327.867188 235.773438 327.71875 C 236.125 327.574219 236.457031 327.394531 236.773438 327.183594 C 237.089844 326.972656 237.382812 326.730469 237.652344 326.460938 C 237.921875 326.191406 238.164062 325.898438 238.375 325.582031 C 238.585938 325.265625 238.765625 324.933594 238.910156 324.582031 C 239.054688 324.226562 239.167969 323.867188 239.242188 323.492188 C 239.316406 323.117188 239.351562 322.742188 239.351562 322.359375 L 239.351562 315.164062 C 239.347656 314.609375 239.417969 314.066406 239.558594 313.535156 L 242.871094 313.535156 C 243.277344 313.535156 243.675781 313.492188 244.070312 313.410156 C 244.464844 313.324219 244.847656 313.203125 245.214844 313.039062 C 245.585938 312.878906 245.933594 312.675781 246.261719 312.441406 C 246.589844 312.207031 246.890625 311.9375 247.160156 311.640625 C 247.433594 311.34375 247.671875 311.019531 247.875 310.671875 C 248.078125 310.324219 248.246094 309.957031 248.375 309.574219 C 248.5 309.191406 248.589844 308.800781 248.636719 308.398438 C 248.679688 308 248.683594 307.597656 248.648438 307.195312 C 248.199219 301.542969 247.191406 295.992188 245.625 290.542969 C 244.058594 285.09375 241.96875 279.851562 239.347656 274.824219 L 238.78125 273.636719 C 238.4375 272.910156 237.960938 272.28125 237.355469 271.753906 C 236.96875 271.410156 236.589844 271.054688 236.222656 270.6875 C 235.859375 270.320312 235.503906 269.941406 235.160156 269.554688 C 234.820312 269.164062 234.488281 268.765625 234.171875 268.355469 C 233.855469 267.945312 233.550781 267.527344 233.257812 267.097656 C 232.96875 266.667969 232.6875 266.230469 232.425781 265.785156 C 232.160156 265.339844 231.910156 264.886719 231.675781 264.421875 C 231.4375 263.960938 231.21875 263.492188 231.011719 263.019531 C 230.804688 262.542969 230.613281 262.0625 230.4375 261.574219 C 230.257812 261.085938 230.097656 260.59375 229.953125 260.097656 C 229.804688 259.597656 229.675781 259.097656 229.5625 258.59375 C 229.445312 258.085938 229.347656 257.578125 229.265625 257.066406 C 229.179688 256.554688 229.113281 256.039062 229.0625 255.523438 C 229.011719 255.007812 228.976562 254.492188 228.957031 253.972656 C 228.9375 253.457031 228.9375 252.9375 228.949219 252.417969 C 228.964844 251.902344 228.992188 251.382812 229.039062 250.867188 C 229.082031 250.351562 229.144531 249.835938 229.222656 249.324219 C 229.300781 248.8125 229.394531 248.300781 229.503906 247.796875 C 229.613281 247.289062 229.738281 246.785156 229.878906 246.285156 C 230.019531 245.789062 230.175781 245.292969 230.347656 244.804688 C 230.519531 244.316406 230.707031 243.832031 230.90625 243.355469 C 231.109375 242.878906 231.324219 242.40625 231.554688 241.941406 C 231.789062 241.476562 232.03125 241.023438 232.292969 240.574219 C 232.550781 240.125 232.824219 239.683594 233.113281 239.253906 C 233.398438 238.820312 233.699219 238.398438 234.011719 237.984375 C 234.324219 237.570312 234.652344 237.167969 234.988281 236.777344 C 235.328125 236.382812 235.675781 236 236.039062 235.628906 C 236.402344 235.257812 236.773438 234.898438 237.160156 234.550781 C 237.542969 234.203125 237.9375 233.867188 238.34375 233.546875 C 238.75 233.222656 239.164062 232.914062 239.589844 232.613281 C 240.011719 232.316406 240.445312 232.035156 240.890625 231.765625 C 241.332031 231.492188 241.78125 231.238281 242.242188 230.996094 C 242.699219 230.753906 243.164062 230.523438 243.636719 230.3125 C 244.109375 230.097656 244.589844 229.902344 245.074219 229.71875 C 245.558594 229.535156 246.046875 229.367188 246.542969 229.210938 C 247.039062 229.058594 247.539062 228.921875 248.042969 228.800781 C 248.546875 228.679688 249.054688 228.574219 249.5625 228.484375 C 250.074219 228.394531 250.585938 228.320312 251.101562 228.261719 C 251.617188 228.203125 252.132812 228.160156 252.652344 228.132812 C 253.167969 228.109375 253.6875 228.097656 254.207031 228.105469 C 254.722656 228.109375 255.242188 228.132812 255.757812 228.171875 C 256.277344 228.210938 256.789062 228.265625 257.304688 228.335938 C 257.816406 228.40625 258.328125 228.492188 258.835938 228.59375 C 259.34375 228.699219 259.851562 228.816406 260.351562 228.949219 C 260.851562 229.082031 261.347656 229.234375 261.839844 229.398438 C 262.332031 229.5625 262.816406 229.742188 263.296875 229.9375 C 263.777344 230.132812 264.25 230.34375 264.71875 230.566406 C 265.183594 230.792969 265.644531 231.03125 266.097656 231.285156 C 266.550781 231.539062 266.992188 231.804688 267.429688 232.085938 C 267.863281 232.367188 268.292969 232.660156 268.707031 232.96875 C 269.125 233.273438 269.535156 233.59375 269.929688 233.929688 C 270.328125 234.261719 270.714844 234.605469 271.089844 234.964844 C 271.46875 235.320312 271.832031 235.6875 272.183594 236.066406 C 272.539062 236.449219 272.878906 236.835938 273.207031 237.238281 C 273.535156 237.640625 273.851562 238.050781 274.15625 238.472656 C 274.457031 238.890625 274.746094 239.320312 275.023438 239.757812 C 275.300781 240.199219 275.5625 240.644531 275.8125 241.101562 C 276.058594 241.554688 276.292969 242.015625 276.511719 242.488281 C 276.734375 242.957031 276.9375 243.433594 277.128906 243.914062 C 277.316406 244.398438 277.492188 244.882812 277.652344 245.378906 C 277.8125 245.871094 277.957031 246.367188 278.085938 246.871094 C 278.214844 247.375 278.324219 247.878906 278.421875 248.386719 C 278.519531 248.898438 278.601562 249.410156 278.667969 249.921875 C 278.730469 250.4375 278.78125 250.953125 278.8125 251.46875 C 278.847656 251.988281 278.863281 252.503906 278.867188 253.023438 C 278.867188 254.726562 278.699219 256.410156 278.351562 258.074219 C 278.007812 259.742188 277.496094 261.355469 276.816406 262.914062 C 276.136719 264.476562 275.304688 265.949219 274.316406 267.335938 C 273.332031 268.722656 272.214844 269.996094 270.964844 271.152344 C 270.449219 271.636719 270.03125 272.199219 269.71875 272.839844 L 269.167969 273.96875 C 266.433594 279.117188 264.25 284.492188 262.617188 290.085938 C 260.988281 295.683594 259.9375 301.386719 259.472656 307.195312 C 259.433594 307.597656 259.441406 308 259.484375 308.402344 C 259.53125 308.800781 259.621094 309.195312 259.746094 309.574219 C 259.875 309.957031 260.042969 310.324219 260.246094 310.671875 C 260.449219 311.019531 260.6875 311.34375 260.960938 311.640625 C 261.230469 311.941406 261.53125 312.207031 261.859375 312.441406 C 262.1875 312.679688 262.535156 312.878906 262.902344 313.039062 C 263.273438 313.203125 263.65625 313.328125 264.050781 313.410156 C 264.445312 313.492188 264.84375 313.535156 265.246094 313.535156 L 268.5625 313.535156 C 268.703125 314.066406 268.773438 314.609375 268.769531 315.164062 L 268.769531 322.359375 C 268.769531 322.742188 268.804688 323.117188 268.878906 323.492188 C 268.953125 323.867188 269.0625 324.230469 269.210938 324.582031 C 269.355469 324.933594 269.535156 325.265625 269.746094 325.582031 C 269.957031 325.898438 270.199219 326.191406 270.46875 326.460938 C 270.738281 326.730469 271.03125 326.972656 271.347656 327.183594 C 271.664062 327.394531 271.996094 327.574219 272.347656 327.71875 C 272.699219 327.867188 273.0625 327.976562 273.4375 328.050781 C 273.8125 328.125 274.1875 328.160156 274.570312 328.160156 L 298.808594 328.160156 C 299.023438 328.160156 299.234375 328.199219 299.4375 328.28125 C 299.636719 328.363281 299.816406 328.480469 299.972656 328.632812 C 300.128906 328.785156 300.246094 328.960938 300.332031 329.164062 C 300.417969 329.363281 300.460938 329.570312 300.464844 329.789062 Z M 300.464844 348.285156 " fill-opacity="1" fill-rule="nonzero"/><path fill="#9cb3c1" d="M 187.542969 270.707031 C 186.847656 270.214844 186.105469 269.8125 185.316406 269.496094 C 184.527344 269.175781 183.710938 268.957031 182.871094 268.832031 C 182.03125 268.710938 181.183594 268.6875 180.339844 268.761719 C 179.492188 268.839844 178.664062 269.011719 177.859375 269.285156 C 171.699219 271.503906 169.230469 278.988281 166.621094 286.910156 C 165.433594 291.261719 163.699219 295.378906 161.410156 299.261719 C 161.183594 298.554688 160.96875 297.808594 160.785156 297.191406 C 159.273438 291.980469 156.445312 282.296875 146.523438 283.347656 C 138.539062 284.207031 135.101562 291.332031 132.0625 297.617188 C 128.796875 304.378906 126.476562 308.539062 121.804688 309.246094 C 121.527344 309.292969 121.25 309.316406 120.964844 309.308594 C 119.902344 306.953125 121.367188 298.261719 124.078125 291.195312 C 124.214844 290.839844 124.316406 290.476562 124.378906 290.101562 C 124.445312 289.726562 124.472656 289.347656 124.460938 288.964844 C 124.453125 288.585938 124.40625 288.210938 124.320312 287.839844 C 124.238281 287.46875 124.117188 287.109375 123.964844 286.761719 C 123.808594 286.414062 123.621094 286.082031 123.402344 285.773438 C 123.183594 285.460938 122.9375 285.175781 122.660156 284.910156 C 122.382812 284.648438 122.085938 284.417969 121.761719 284.214844 C 121.441406 284.011719 121.101562 283.839844 120.746094 283.703125 C 120.390625 283.566406 120.027344 283.464844 119.652344 283.402344 C 119.277344 283.335938 118.898438 283.308594 118.519531 283.316406 C 118.136719 283.328125 117.761719 283.375 117.390625 283.457031 C 117.019531 283.542969 116.660156 283.660156 116.3125 283.8125 C 115.964844 283.96875 115.632812 284.15625 115.324219 284.375 C 115.011719 284.59375 114.722656 284.839844 114.460938 285.117188 C 114.199219 285.394531 113.964844 285.691406 113.761719 286.011719 C 113.558594 286.335938 113.390625 286.671875 113.25 287.027344 C 111.339844 291.988281 105.609375 308.789062 112.046875 316.800781 C 112.589844 317.46875 113.203125 318.066406 113.886719 318.589844 C 114.570312 319.117188 115.304688 319.558594 116.085938 319.914062 C 116.871094 320.269531 117.6875 320.53125 118.53125 320.699219 C 119.378906 320.867188 120.230469 320.9375 121.089844 320.910156 C 121.914062 320.90625 122.730469 320.84375 123.542969 320.71875 C 134.601562 319.042969 139.171875 309.574219 142.511719 302.660156 C 144.066406 299.433594 145.988281 295.460938 147.609375 294.929688 C 148.503906 296.683594 149.183594 298.519531 149.644531 300.429688 C 150.933594 304.851562 152.386719 309.859375 157.128906 311.683594 C 157.886719 311.949219 158.664062 312.117188 159.460938 312.195312 C 160.257812 312.269531 161.050781 312.25 161.84375 312.136719 C 162.636719 312.019531 163.40625 311.8125 164.148438 311.511719 C 164.890625 311.210938 165.585938 310.828125 166.238281 310.359375 C 172.351562 306.589844 175.039062 298.429688 177.640625 290.542969 C 178.621094 287.113281 179.933594 283.816406 181.570312 280.652344 C 181.898438 280.839844 182.238281 280.992188 182.59375 281.113281 C 182.949219 281.234375 183.316406 281.320312 183.6875 281.371094 C 184.0625 281.421875 184.433594 281.433594 184.808594 281.410156 C 185.1875 281.386719 185.554688 281.328125 185.917969 281.234375 C 186.285156 281.140625 186.632812 281.011719 186.972656 280.847656 C 187.3125 280.683594 187.632812 280.492188 187.933594 280.265625 C 188.234375 280.039062 188.511719 279.789062 188.761719 279.507812 C 189.015625 279.230469 189.238281 278.929688 189.433594 278.605469 C 189.625 278.285156 189.785156 277.945312 189.914062 277.59375 C 190.042969 277.238281 190.132812 276.875 190.191406 276.503906 C 190.25 276.132812 190.269531 275.757812 190.253906 275.382812 C 190.238281 275.007812 190.1875 274.636719 190.101562 274.269531 C 190.011719 273.90625 189.890625 273.550781 189.734375 273.210938 C 189.578125 272.867188 189.390625 272.542969 189.171875 272.238281 C 188.953125 271.933594 188.703125 271.652344 188.429688 271.394531 C 188.15625 271.136719 187.859375 270.90625 187.542969 270.707031 Z M 187.542969 270.707031 " fill-opacity="1" fill-rule="nonzero"/><path fill="#9cb3c1" d="M 111.949219 219.402344 C 111.949219 219.785156 111.984375 220.160156 112.058594 220.535156 C 112.132812 220.90625 112.246094 221.269531 112.390625 221.621094 C 112.535156 221.972656 112.714844 222.308594 112.925781 222.625 C 113.136719 222.941406 113.378906 223.234375 113.648438 223.503906 C 113.917969 223.773438 114.210938 224.015625 114.527344 224.226562 C 114.84375 224.4375 115.179688 224.617188 115.53125 224.761719 C 115.882812 224.90625 116.246094 225.015625 116.617188 225.089844 C 116.992188 225.164062 117.367188 225.203125 117.75 225.203125 L 214.535156 225.203125 C 217.773438 220.664062 221.675781 216.796875 226.242188 213.601562 L 117.75 213.601562 C 117.367188 213.601562 116.992188 213.640625 116.617188 213.714844 C 116.246094 213.789062 115.882812 213.898438 115.53125 214.042969 C 115.179688 214.1875 114.84375 214.367188 114.527344 214.578125 C 114.210938 214.792969 113.917969 215.03125 113.648438 215.300781 C 113.378906 215.570312 113.136719 215.863281 112.925781 216.179688 C 112.714844 216.496094 112.535156 216.832031 112.390625 217.183594 C 112.246094 217.535156 112.132812 217.898438 112.058594 218.269531 C 111.984375 218.644531 111.949219 219.023438 111.949219 219.402344 Z M 111.949219 219.402344 " fill-opacity="1" fill-rule="nonzero"/></svg>