<svg xmlns="http://www.w3.org/2000/svg" xmlns:xlink="http://www.w3.org/1999/xlink" width="500" zoomAndPan="magnify" viewBox="0 0 375 374.999991" height="500" preserveAspectRatio="xMidYMid meet" version="1.0"><defs><clipPath id="6f6ba19ac6"><path d="M 89.296875 0 L 285.796875 0 L 285.796875 375 L 89.296875 375 Z M 89.296875 0 " clip-rule="nonzero"/></clipPath></defs><g clip-path="url(#6f6ba19ac6)"><path fill="#9cb3c1" d="M 117.972656 258.246094 C 117.972656 258.246094 149.511719 288.949219 190.46875 288.949219 C 212.597656 288.949219 232.644531 277.507812 232.644531 253.730469 C 232.644531 204.578125 94.21875 209.5 94.21875 121.449219 C 94.21875 79.273438 125.761719 46.488281 171.207031 39.105469 L 171.207031 0.609375 L 206.429688 0.609375 L 206.429688 38.292969 C 253.957031 42.378906 278.523438 68.183594 278.523438 68.183594 L 255.683594 111.324219 C 255.683594 111.324219 227.769531 85.949219 191.382812 85.949219 C 166.820312 85.949219 147.558594 100.285156 147.558594 120.761719 C 147.558594 169.507812 285.601562 160.90625 285.601562 252.714844 C 285.601562 294.484375 256.519531 330.136719 206.53125 336.683594 L 206.53125 374.363281 L 171.207031 374.363281 L 171.207031 336.480469 C 118.378906 330.339844 89.296875 297.984375 89.296875 297.984375 Z M 117.972656 258.246094 " fill-opacity="1" fill-rule="nonzero"/></g></svg>