<svg xmlns="http://www.w3.org/2000/svg" xmlns:xlink="http://www.w3.org/1999/xlink" width="500" zoomAndPan="magnify" viewBox="0 0 375 374.999991" height="500" preserveAspectRatio="xMidYMid meet" version="1.0"><defs><clipPath id="f99236f078"><path d="M 136.550781 263.773438 L 174.480469 263.773438 L 174.480469 305.09375 L 136.550781 305.09375 Z M 136.550781 263.773438 " clip-rule="nonzero"/></clipPath><clipPath id="e3f02b4114"><path d="M 287.769531 72 L 374.832031 72 L 374.832031 194.296875 L 287.769531 194.296875 Z M 287.769531 72 " clip-rule="nonzero"/></clipPath></defs><path fill="#9cb3c1" d="M 127.214844 241.792969 L 108.496094 266.941406 C 104.527344 272.269531 105.640625 279.878906 110.972656 283.847656 L 112.289062 284.828125 C 114.441406 286.433594 116.96875 287.207031 119.480469 287.207031 C 123.175781 287.207031 126.832031 285.527344 129.195312 282.347656 L 147.914062 257.203125 C 151.882812 251.875 150.769531 244.265625 145.4375 240.296875 L 144.125 239.316406 C 141.96875 237.710938 139.441406 236.9375 136.933594 236.9375 C 133.234375 236.9375 129.578125 238.617188 127.214844 241.792969 " fill-opacity="1" fill-rule="nonzero"/><g clip-path="url(#f99236f078)"><path fill="#9cb3c1" d="M 151.550781 268.203125 L 138.785156 285.351562 C 135.242188 290.109375 136.234375 296.902344 140.996094 300.445312 L 144.386719 302.96875 C 146.3125 304.402344 148.570312 305.09375 150.808594 305.09375 C 154.109375 305.09375 157.375 303.59375 159.484375 300.761719 L 172.25 283.613281 C 175.792969 278.851562 174.796875 272.058594 170.039062 268.515625 L 166.644531 265.992188 C 164.722656 264.558594 162.464844 263.867188 160.222656 263.867188 C 156.925781 263.867188 153.660156 265.367188 151.550781 268.203125 " fill-opacity="1" fill-rule="nonzero"/></g><path fill="#9cb3c1" d="M 83.285156 212.214844 L 78.136719 208.382812 C 76.40625 207.09375 74.378906 206.472656 72.367188 206.472656 C 69.402344 206.476562 66.46875 207.820312 64.574219 210.371094 L 55.980469 221.910156 C 52.796875 226.1875 53.691406 232.292969 57.96875 235.472656 L 63.117188 239.308594 C 64.847656 240.59375 66.875 241.214844 68.886719 241.214844 C 71.851562 241.214844 74.785156 239.867188 76.679688 237.320312 L 85.273438 225.777344 C 88.457031 221.503906 87.5625 215.398438 83.285156 212.214844 " fill-opacity="1" fill-rule="nonzero"/><path fill="#9cb3c1" d="M 121.371094 214 C 119.066406 212.285156 116.363281 211.453125 113.679688 211.457031 C 109.722656 211.457031 105.8125 213.253906 103.285156 216.648438 L 80.4375 247.335938 C 76.195312 253.039062 77.386719 261.179688 83.089844 265.421875 C 85.394531 267.140625 88.097656 267.964844 90.78125 267.964844 C 94.347656 267.964844 97.878906 266.503906 100.390625 263.726562 C 100.769531 263.082031 101.1875 262.449219 101.640625 261.835938 L 112.492188 247.265625 L 120.363281 236.691406 C 120.902344 235.964844 121.492188 235.28125 122.121094 234.632812 L 124.019531 232.085938 C 128.265625 226.382812 127.074219 218.246094 121.371094 214 " fill-opacity="1" fill-rule="nonzero"/><path fill="#9cb3c1" d="M 57.007812 70.808594 L 1.929688 169.363281 C 0.183594 172.488281 1.300781 176.433594 4.425781 178.179688 L 23.449219 188.808594 C 26.570312 190.554688 30.515625 189.4375 32.261719 186.316406 L 87.339844 87.757812 C 89.085938 84.636719 87.96875 80.691406 84.84375 78.945312 L 65.820312 68.3125 C 62.699219 66.566406 58.75 67.683594 57.007812 70.808594 " fill-opacity="1" fill-rule="nonzero"/><g clip-path="url(#e3f02b4114)"><path fill="#9cb3c1" d="M 288.597656 92.316406 L 343.675781 190.871094 C 345.421875 193.996094 349.367188 195.113281 352.492188 193.367188 L 371.515625 182.734375 C 374.636719 180.992188 375.753906 177.042969 374.007812 173.921875 L 318.933594 75.363281 C 317.1875 72.242188 313.242188 71.125 310.117188 72.871094 L 291.09375 83.5 C 287.972656 85.246094 286.855469 89.191406 288.597656 92.316406 " fill-opacity="1" fill-rule="nonzero"/></g><path fill="#9cb3c1" d="M 311.078125 225.835938 C 311.230469 221.289062 309.101562 216.964844 305.472656 214.214844 L 276.890625 192.554688 C 266.558594 185.273438 253.675781 176.933594 238.589844 167.761719 C 217.324219 154.835938 197.28125 143.648438 187.988281 138.539062 C 186.539062 137.742188 184.839844 137.53125 183.238281 137.949219 L 172.792969 140.6875 C 171.257812 141.089844 169.917969 142.035156 169.027344 143.347656 L 169.015625 143.363281 C 166.117188 147.609375 162.894531 151.503906 159.4375 154.945312 C 155.375 158.980469 151.070312 162.332031 146.632812 164.90625 C 141.3125 167.992188 135.832031 169.941406 130.347656 170.691406 C 129.132812 170.859375 127.914062 170.941406 126.71875 170.941406 C 122.417969 170.941406 118.410156 169.839844 115.128906 167.753906 C 110.921875 165.078125 108.226562 161.15625 107.332031 156.417969 C 106.292969 150.9375 107.710938 144.675781 111.667969 137.277344 C 114.457031 132.066406 117.929688 127.300781 120.46875 123.824219 C 121.089844 122.96875 121.628906 122.230469 122.058594 121.621094 C 123.808594 119.136719 125.84375 116.296875 128.128906 113.320312 C 128.710938 112.5625 128.09375 111.476562 127.144531 111.582031 C 122.347656 112.136719 111.496094 111.59375 94.429688 101.015625 C 92.914062 100.078125 90.917969 100.59375 90.046875 102.148438 L 42.734375 186.8125 C 41.742188 188.589844 41.984375 190.800781 43.335938 192.324219 L 55.878906 206.433594 C 56.054688 206.628906 56.246094 206.804688 56.457031 206.957031 L 57.71875 205.265625 C 59.441406 202.949219 61.722656 201.054688 64.316406 199.789062 C 66.808594 198.570312 69.589844 197.929688 72.367188 197.925781 C 74.285156 197.925781 76.179688 198.226562 77.996094 198.816406 C 79.882812 199.425781 81.644531 200.339844 83.242188 201.527344 L 88.390625 205.359375 C 90.359375 206.828125 91.988281 208.644531 93.226562 210.761719 C 93.515625 211.257812 93.78125 211.769531 94.023438 212.289062 C 94.34375 212.976562 95.285156 213.074219 95.738281 212.464844 L 96.425781 211.546875 C 98.453125 208.820312 101.132812 206.589844 104.183594 205.101562 C 107.117188 203.667969 110.453125 202.910156 113.65625 202.910156 C 115.902344 202.910156 118.152344 203.261719 120.292969 203.957031 C 122.511719 204.671875 124.597656 205.746094 126.472656 207.144531 C 128.792969 208.871094 130.707031 211.007812 132.164062 213.5 C 133.5625 215.894531 134.476562 218.503906 134.882812 221.257812 C 135.160156 223.167969 135.183594 225.082031 134.953125 226.976562 C 134.859375 227.75 135.46875 228.433594 136.25 228.402344 C 136.480469 228.398438 136.710938 228.394531 136.945312 228.394531 C 139.082031 228.394531 141.25 228.730469 143.304688 229.398438 C 145.433594 230.085938 147.421875 231.121094 149.226562 232.460938 L 150.542969 233.441406 C 156.988281 238.238281 159.824219 246.109375 158.542969 253.53125 C 158.378906 254.476562 159.121094 255.332031 160.078125 255.324219 C 160.128906 255.320312 160.179688 255.320312 160.234375 255.320312 C 162.265625 255.320312 164.269531 255.636719 166.195312 256.261719 C 168.191406 256.910156 170.058594 257.878906 171.75 259.136719 L 175.140625 261.660156 C 183.707031 268.039062 185.480469 280.148438 179.105469 288.714844 L 177.433594 290.960938 C 176.644531 292.015625 176.832031 293.53125 177.894531 294.316406 C 178.078125 294.449219 178.285156 294.558594 178.5 294.636719 C 182.304688 295.988281 218.984375 308.445312 229.347656 290.964844 C 230.03125 289.8125 229.570312 288.324219 228.371094 287.734375 L 194.15625 271.007812 C 192.09375 269.996094 191.011719 267.644531 191.683594 265.449219 C 192.171875 263.847656 193.566406 262.398438 196.953125 262.253906 C 197.308594 262.238281 197.664062 262.316406 197.984375 262.484375 L 233.175781 280.84375 C 237.128906 282.90625 241.613281 283.769531 246.035156 283.222656 C 251.457031 282.550781 257.351562 279.761719 257.871094 270.90625 C 258.007812 268.582031 256.808594 266.382812 254.796875 265.210938 L 210.886719 239.628906 C 209.171875 238.628906 208.246094 236.671875 208.574219 234.714844 C 208.882812 232.882812 209.863281 231.019531 212.558594 230.921875 C 213.441406 230.886719 214.3125 231.125 215.074219 231.566406 L 261.21875 258.386719 C 263.535156 259.730469 266.1875 260.386719 268.867188 260.261719 C 273.480469 260.046875 280.214844 258.648438 282.875 252.636719 C 285.214844 247.355469 283.15625 241.152344 278.199219 238.179688 L 227.679688 207.867188 C 226.1875 206.972656 225.308594 205.320312 225.425781 203.582031 C 225.574219 201.292969 226.734375 198.699219 231.429688 199.453125 C 232 199.542969 232.546875 199.75 233.039062 200.042969 L 290.429688 234.25 C 294.691406 236.792969 299.925781 237.214844 304.488281 235.261719 C 307.882812 233.804688 310.902344 231.042969 311.078125 225.835938 " fill-opacity="1" fill-rule="nonzero"/><path fill="#9cb3c1" d="M 332.054688 188.925781 L 284.160156 103.21875 C 283.777344 102.535156 282.972656 102.210938 282.222656 102.433594 C 278.785156 103.453125 274.484375 104.5 273.859375 104.578125 C 272.007812 104.804688 270.148438 104.914062 268.292969 104.914062 C 261.984375 104.914062 255.683594 103.664062 249.730469 101.617188 C 235.851562 96.847656 218.597656 95.476562 203.207031 95.476562 C 191.820312 95.476562 181.457031 96.226562 174.230469 96.90625 C 168.273438 97.46875 162.492188 97.902344 156.722656 99.605469 C 151.300781 101.207031 146.660156 104.902344 142.875 108.996094 C 141.875 110.078125 140.894531 111.183594 139.933594 112.308594 C 136.050781 116.84375 132.464844 121.679688 129.050781 126.535156 C 124.042969 133.652344 108.058594 153.125 119.714844 160.542969 C 121.785156 161.859375 124.25 162.398438 126.722656 162.398438 C 127.546875 162.398438 128.375 162.335938 129.191406 162.222656 C 138.515625 160.945312 146.867188 155.386719 153.410156 148.882812 C 156.582031 145.730469 159.433594 142.242188 161.953125 138.546875 C 162.386719 137.914062 164.105469 134.132812 164.828125 133.941406 L 180.832031 129.746094 L 186.179688 128.34375 C 186.320312 128.308594 186.46875 128.289062 186.617188 128.289062 C 186.898438 128.289062 187.179688 128.359375 187.433594 128.496094 C 195.679688 132.96875 267.601562 172.410156 308.871094 208.03125 C 308.875 208.035156 308.878906 208.039062 308.882812 208.039062 C 309.449219 208.527344 310.289062 208.527344 310.867188 208.050781 L 331.957031 190.710938 C 332.328125 190.179688 332.367188 189.488281 332.054688 188.925781 " fill-opacity="1" fill-rule="nonzero"/></svg>