<svg xmlns="http://www.w3.org/2000/svg" xmlns:xlink="http://www.w3.org/1999/xlink" width="500" zoomAndPan="magnify" viewBox="0 0 375 374.999991" height="500" preserveAspectRatio="xMidYMid meet" version="1.0"><defs><clipPath id="c5ecc40722"><path d="M 36 17.726562 L 340 17.726562 L 340 357.476562 L 36 357.476562 Z M 36 17.726562 " clip-rule="nonzero"/></clipPath></defs><path fill="#9cb3c1" d="M 187.792969 74.921875 C 142.714844 80.074219 99.511719 110.046875 90.4375 116.371094 C 87.453125 134.398438 72.171875 253.589844 187.792969 299.835938 C 302.125 254.058594 287.839844 133.757812 285.089844 116.371094 C 276.015625 109.8125 232.753906 80.074219 187.792969 74.921875 Z M 258.042969 131.355469 L 182.816406 211.382812 C 182.277344 211.933594 181.652344 212.359375 180.941406 212.664062 C 180.230469 212.96875 179.492188 213.125 178.71875 213.136719 C 178 213.152344 177.304688 213.027344 176.632812 212.765625 C 175.964844 212.5 175.371094 212.117188 174.855469 211.617188 L 137.214844 176.492188 C 136.851562 175.941406 136.585938 175.347656 136.425781 174.710938 C 136.261719 174.074219 136.207031 173.425781 136.261719 172.769531 C 136.316406 172.113281 136.480469 171.484375 136.746094 170.882812 C 137.015625 170.28125 137.375 169.742188 137.824219 169.261719 C 138.273438 168.78125 138.789062 168.386719 139.371094 168.078125 C 139.957031 167.773438 140.574219 167.570312 141.222656 167.472656 C 141.875 167.375 142.523438 167.386719 143.171875 167.507812 C 143.816406 167.628906 144.425781 167.851562 145 168.179688 L 178.425781 199.496094 L 249.789062 123.394531 C 250.019531 123.027344 250.289062 122.691406 250.597656 122.382812 C 250.90625 122.078125 251.242188 121.808594 251.609375 121.574219 C 251.976562 121.34375 252.367188 121.15625 252.773438 121.007812 C 253.183594 120.863281 253.605469 120.765625 254.035156 120.714844 C 254.46875 120.660156 254.898438 120.660156 255.332031 120.703125 C 255.761719 120.746094 256.183594 120.839844 256.597656 120.976562 C 257.007812 121.113281 257.402344 121.296875 257.773438 121.523438 C 258.144531 121.746094 258.484375 122.011719 258.796875 122.3125 C 259.109375 122.613281 259.386719 122.945312 259.625 123.308594 C 259.863281 123.671875 260.058594 124.058594 260.210938 124.464844 C 260.367188 124.871094 260.472656 125.289062 260.53125 125.71875 C 260.589844 126.148438 260.605469 126.582031 260.566406 127.011719 C 260.53125 127.445312 260.449219 127.871094 260.316406 128.285156 C 260.1875 128.699219 260.011719 129.09375 259.792969 129.46875 C 259.574219 129.84375 259.320312 130.191406 259.023438 130.511719 C 258.726562 130.828125 258.402344 131.109375 258.042969 131.355469 Z M 258.042969 131.355469 " fill-opacity="1" fill-rule="nonzero"/><g clip-path="url(#c5ecc40722)"><path fill="#9cb3c1" d="M 333.558594 79.839844 C 330.691406 77.613281 263.3125 26.214844 189.257812 17.785156 L 186.328125 17.785156 C 112.566406 26.214844 44.894531 77.613281 42.023438 79.839844 C 40.925781 80.699219 40.222656 81.8125 39.917969 83.175781 C 39.507812 85.226562 1.808594 285.203125 184.925781 356.855469 C 185.578125 357.140625 186.261719 357.277344 186.972656 357.265625 L 188.613281 357.265625 C 189.324219 357.277344 190.007812 357.140625 190.660156 356.855469 C 373.777344 285.203125 336.078125 85.226562 335.667969 83.175781 C 335.363281 81.8125 334.660156 80.699219 333.558594 79.839844 Z M 190.425781 310.960938 C 189.773438 311.246094 189.089844 311.382812 188.378906 311.371094 L 187.207031 311.371094 C 186.496094 311.382812 185.8125 311.246094 185.160156 310.960938 C 52.035156 258.859375 79.433594 113.5 79.785156 111.921875 C 80.058594 110.539062 80.761719 109.425781 81.890625 108.582031 C 83.941406 107.003906 133.058594 69.652344 186.621094 63.566406 L 189.082031 63.566406 C 242.644531 69.417969 291.761719 107.003906 293.8125 108.582031 C 294.941406 109.425781 295.644531 110.539062 295.917969 111.921875 C 296.152344 113.5 323.550781 258.859375 190.425781 310.960938 Z M 190.425781 310.960938 " fill-opacity="1" fill-rule="nonzero"/></g></svg>